<?xml version="1.0" encoding="utf-8"?>
<!-- Generator: Adobe Illustrator 21.0.0, SVG Export Plug-In . SVG Version: 6.00 Build 0)  -->
<svg version="1.1" id="Layer_1" xmlns="http://www.w3.org/2000/svg" xmlns:xlink="http://www.w3.org/1999/xlink" x="0px" y="0px"
	 viewBox="0 0 474 1458.2" style="enable-background:new 0 0 474 1458.2;" xml:space="preserve">
<style type="text/css">
	.st0{fill:#1D1B50;}
	.st1{font-family:'NotoSansCJKtc-Regular-B5pc-H';}
	.st2{font-size:46.66px;}
</style>
<title>logo</title>
<text transform="matrix(1 0 0 1 212.95 1087.99)" class="st0 st1 st2">中</text>
<text transform="matrix(1 0 0 1 212.95 1143.99)" class="st0 st1 st2">醫</text>
<text transform="matrix(1 0 0 1 212.95 1199.98)" class="st0 st1 st2">診</text>
<text transform="matrix(1 0 0 1 212.95 1255.98)" class="st0 st1 st2">所</text>
<path class="st0" d="M185.5,828c-10.6-2-13.9-12.3-14.8-20.3c-0.1-1.4,0.1-2.9,0-4.3c-0.2-3.8-0.2-7.4,3.4-9.8
	c0.4-0.3,0.3-1.5,0.4-2.5c1.9,0,4.1-0.7,5.2,0.1c2.8,1.9,5.3,4.3,7.4,7c2,2.7,3.3,6,5.5,10.1c3.3,2.1,6.1-1.7,9.1-3.5
	c5.5-3.3,9-7.9,8.6-15c-0.4-6.7,2.7-13.1,1.7-20c-0.4-3,0.4-6.1-2.8-8.4c-1.6-1.2-1.4-3.5,0.4-5.2c1.2-1.1,2.4-2.3,3.4-3.4
	c6.9,2.4,10.6,8,15.3,12.3c-0.1,4,4.4,6.2,4.3,10.3c-0.1,3.8,0.8,7.8-1.3,12.1c1.3-0.5,3-0.7,3.8-1.7c3.7-4.6,5.8-10.3,7.7-15.7
	c1.4-4,3.1-7.4,6.3-10c1.8,1.9,4.1,3,5.6,5.3c2.3,3.7,5.6,6.9,8.4,10.3c1.4,1.7,3,3.4,3.5,5.4s0.6,4.7-0.4,6.3
	c-3.1,4.8-6.9,9.2-10.2,13.9c-4.5,6.4-10.6,11.7-13.1,19.5c-0.8,2.5-3.2,4.4-4.5,6.7c-2.2,4-4,8.1-6.4,13.1c1.9-0.3,3.6,0,4.1-0.6
	c3.1-4.2,3-4.2,6.6-6.3c1.6,6.7-1.9,14.9,6.2,19.9c2-5.5,7.5-8.2,8.4-14c4.1-2.3,2.9-6.3,3.1-9.9c2.7-3.1,7.2-5.3,4.4-11.2
	c3.4,0.3,5.5-0.4,8.1,1c3.9,2,8.1,0.6,11.5-2c2.2-1.6,4-3.6,6.5-5c2-0.9,2.9-3.3,2-5.3c-0.4-1-1.2-1.7-2.2-2.1
	c-3-1.4-4.9-3.3-7.3-6.3c4.1-1.4,7.5-3,6.1-7.6c9.8-2.2,16.8,4.2,25,6.5c2.6,4.7,6,9,7.6,14c1.7,5.4,0,11.1-3.4,15.6
	c-1.5,1.9-5.1,2.6-7.8,3c-3.1,0.5-6.3-0.1-9.5,0.2c-4.1,0.3-8.2,0.9-12.2,1.8c-1.2,0.3-3,2.3-3,3.5c0,5.6-3,8.5-7.3,11.6
	c-5,3.7-9.1,8.7-13.5,13.2l-7.5,7.5l5.8,6.3v8.8c-4.2,1-7.4,4.7-12.1,4.1c-0.8-0.1-1.7,1.5-2.6,1.8c-3.6,1.2-5.5,5.5-10,5.2
	c-1-0.1-2.1,2.2-3.9,4.3c2.6,0.3,4.2,0.8,5.7,0.6c2.1-0.2,3.7-1.5,6.2,0.7c1.8,1.7,5.8,1,9.6,1.5l3.7,4.4c1.2,7.1-1.5,13.5-6.2,19.9
	c-4,5.5-6.2,12.3-9.2,18.5c-0.6,1.2-1.2,2.3-1.8,3.5c2.2,2.5,5.5,3.7,8.8,3.3c5.6-0.5,11.1,0.4,17.9,3.3c1.2,1.2,3.8,3.9,6.5,6.5
	c2,1.9,1.8,3.8,0.4,5.9c-2.8,4.3-6,7.4-11.7,6.8c-3.4-0.4-6.9,0.2-10.3-0.1c-4.6-0.5-8.8,1-12.8,2.5c-3.7,1.4-6.8,1.6-10.1-0.6
	c-1.3-1-2.8-1.5-4.4-1.7c-3.4,0-4.8-2.7-6.4-4.8c-0.9-1.2-0.9-3.2-1.9-4.3c-3.8-4.2-2.9-8.5-1.1-13.2c1.6-4.2,2.4-8.8,3.7-14.1
	c-3.7,0.8-6.2,1.7-8.7,1.8c-3,0.1-6-0.3-8.9-1.3c-3.5-1.2-3.3-4.2-5.8-6.7l5.1-1.1l-1.4-1.8v-9.7c1.9,0.3,3.7,0.2,4.9,1
	c4.1,2.6,7.3,0,10.6-1.7c2.6-1.3,1.9-4,1.6-6.1c-0.3-1.9-1.8-3-4.2-3.3c-9.9-1.5-11.3-2.2-17.8-6.8c-1.3-1-2.2-3-3.6-3.3
	c-3.4-0.8-1.2-3.3-1.9-4.8c-0.4-1-0.7-2.3-1.5-2.8c-2.5-1.6-1.6-6.4-5.8-6.3c-1.7,2.4-3.2,4.7-3.1,8c0.3,6.3-0.2,12.6,0.2,18.9
	c0.3,4.6,1.4,9.1,2.3,14.4c-6.3,0-11.6,0-17,0c-4.5,0-8.2-2.2-11.8-6.6c-1.4-1.7-3.1-3.3-4.6-5c-1.3-1.3-2.4-2.9-3.4-4.5
	c-1-2-2.6-3.4-3.7-5.3c-6.4-10.8-7-12.1-6.3-25.1c5-0.7,8.6,2,11.1,5.6c3,4.4,6.3,8.2,11,10.8c1,0.7,1.8,1.6,2.6,2.5
	c3.4-4.7,6.6-9.3,6-15.6c-0.1-1.2,0.9-2.5,1.1-3.8c0.5-3.8,2.9-7,2.4-11.1c-0.2-1.7,1-3.5,1.6-5.3c0.5-1.5,1.8-3.1,1.6-4.4
	c-1.1-7.2,3.6-12.3,6-18.2C181.6,835.8,183.5,832.3,185.5,828z M212.2,849.7h-13.6c-1.2-6.2-1.2-6.2-5.9-6.6
	c-6.7,6.1-3.6,14.5-6.1,22.2c4.9,2,7.8,8.5,14.1,8.7L212.2,849.7z M219.2,863.5c-1.3,5.3-2.5,10.2-3.6,15.1
	c-0.6,2.3,0.6,4.7,2.8,5.4c1.9,0.7,3.7-0.2,5.2-1.8c2.9-3.2,6-6,9-9.1c1.5-1.5,2.8-3.2,4.2-4.8c-5-0.7-9.2-1.3-12.6-4.7
	C223.5,862.8,221.4,863.5,219.2,863.5L219.2,863.5z"/>
<path class="st0" d="M222.9,446.2c1.7-2.2,3.7-3.5,3.8-4.9c0.2-5.5,5-6.4,8.3-8.2c2.5-1.4,5.9,0.9,7.2,2.6c3.6,4.5,9,5,13.5,7.3
	c6.6,3.5,8.6,6.9,5.6,13.5c-0.4,1-1.6,2-1.4,2.8c1.1,6.3-4.3,8.7-7.6,13c3.2,4,6.8,7.8,9.6,12.2c2.5,3.6,5.4,6.8,8.7,9.7
	c3,2.6,5.2,6.2,9.1,8.2s6.9,5.5,10.4,8.3c0.8,0.7,1.8,1.2,2.8,1.4c4.9,0.7,9.9,1.1,14.8,1.8c1.8,0.3,3.9,0.6,5.2,1.8
	c6,5.1,13,5.4,20.3,5.1c1.1,0,2.2,0,3.5,0c0.1-0.9,0.2-1.8,0.4-2.6c1.1-4.1,3-5.2,6.5-3.7c0.7,0.3,1.4,0.8,2.1,1.2
	c5.3,2.6,7.4,8,10.2,12.5c2.4,3.8,1.8,8.1-2.6,11.6c-3.2,0-6.9,0.1-10.6,0c-1.4,0-2.7-0.3-3.9-0.9c-6.2-4.1-12.6-2.6-18.9-0.7
	c-13.9,4.1-18.3,5.1-28.8,1.4c-6.8-2.4-13.6-5.9-17.8-12.8c-5.5-8.4-12.9-15.3-21.7-20.1c-2.8-1.5-6.8-1.1-8.4-4.7
	c-5.2,0-10.6-1-15.1,3c-1.8,1.6-4.1,2.7-5.9,4.3c-2.3,2-4.9,4-4,7.8c0.3,1.1,0.2,2.2-0.4,3.2c-3.9,4.5-3.1,9.9-3,15.1
	c0,3.6-0.2,7.1-1.7,10.5c-2.1,4.6-1.8,10-5.2,14.2c-0.7,0.8-0.8,2.2-1.6,2.7c-5.9,3.8-10.3,9.9-17.6,11.4c-3.8,4.7-9.1,3.3-14.1,3.5
	c-2.7,0.1-5.5-0.3-7.9,1.7c-3.9,3.1-8.6,1.3-13,1.8c-3.1-3.7-6.3-7.2-9-11c-1.1-1.8-1.8-3.9-2.1-6c-0.8-4.3,0-9.4-2.1-12.8
	c-1.9-3.1-0.7-4.7,0.4-6.5c3-4.8,6.9-8.7,13.2-8.5c5.2,0.1,9.5-4,14.9-3.6c0.9,0.1,2.3-1.6,3-2.8c1.8-2.7,2.9-5.9,5-8.2
	c4.3-4.8,3.3-10.4,3.3-15.9c0-1-0.8-2-1.4-2.8c-2.8-4.3-6-8.5-5.5-14.1c0-0.8-0.2-1.6-0.6-2.3c-5-7.5-2.2-15.8-2.5-23.7
	c0-0.6,1.1-1.2,1.8-1.9c3.2,1,6.3,2.3,9.5,2.9c3.6,0.6,4.9-0.8,5.6-4.4c0.4-2.1,0.7-4.4,1.8-6.1c1.2-2,2.1-4,1.6-6.2
	c-0.7-3,1.1-5.3,1.8-7.9c0.4-1.3,1.7-2.4,1.6-3.6c-0.5-8.1,3.4-14.6,6.9-21.5c-4.3-6.9-8.7-14-13.1-21c-1.1-1.8-1-3.5,0.5-5.3
	c2.5-3,5.9-5,9.6-5.7c4.3-0.7,6.9-3.5,9.8-5.5c4.1-2.8,7.1-2.5,11.4-0.7c5.1,2.2,10.6,3.4,15.9,5.3c6.1,2.3,11.6,6.2,15.9,11.1
	c2.3,2.8,2.6,6.4,4.8,9.3c1.3,1.8,1,5.7-1.7,8.5c-2.5,2.5-2.1,7.2-6.4,9c-3.2,1.4-5.8,4-8.8,5.8c-1.5,0.7-3.1,1-4.7,0.9
	c-3.3-0.1-5.2,0.8-5.7,4.6c-0.5,3.3-2.3,6.3-4.9,8.3C221.5,440.4,221.1,442.4,222.9,446.2z"/>
<path class="st0" d="M155.2,681.4l18.4-5.2l-5.9-6.2c2.4-0.7,4.1-1.3,5.9-1.8c2.9-0.7,6.3,1.4,8.9-1.3c6.9,1.2,12.4-4,19-3.9
	c0.8,0,2.1,0,2.4-0.4c2-3.3,5.8-1.9,8.1-3.3c7.5-4.4,16.2-3.8,23.9-6.7c3.5-1.3,7.3-2.4,10-4.7c4.2-3.6,9.9-2.4,14.2-5.3
	c0.2-0.1,0.8,0.4,1.2,0.7c4.1,3.2,8.9,2.6,13.6,2.4c3.6-0.2,7.1,1.1,9.7,3.7c0.7,0.9,1.6,1.7,2.5,2.4c3.4,2,6.9,3.8,10.3,5.6
	c-0.3,4.4,3.7,6.5,5.2,9.9c0.4,0.6,0.9,1.1,1.4,1.6l-4,7.9c-3.4-1-4.8,2.4-7.2,3.3c-1.9,0.6-4.1,4-6.4,0.3c-0.5-0.3-1.1-0.4-1.6-0.2
	c-3.8,3.5-8.6,2.8-13.2,3.7c-4.3,0.8-8.1,3.8-12.1,5.8c-0.7,0.3-1.9,1-2.2,0.7c-4.4-3.5-9.3-1-14-1.6c-3.9-0.5-7.2,2.5-11.4,1.8
	c-3.7-0.5-7.5-0.5-11.1,0c-2.9,0.4-5.8,1.1-8.6,2.1c-2,0.7-4.2,1.1-6.3,1.2c-2.2,0.1-4.4-0.2-6.1,2c-1.6,2.1-4.7,2.5-6.8,0.9
	c0,0,0,0,0,0c-4.5-3.5-9.4-3-14.4-2.8c-7.9,0.3-13.6-3.9-19-8.9C158.4,684.1,157.1,683,155.2,681.4z"/>
<path class="st0" d="M271,282.5c0,0-0.1,0.1-0.1,0.2L271,282.5L271,282.5z"/>
<path class="st0" d="M265.2,281.6L265.2,281.6C265.2,281.6,265.2,281.6,265.2,281.6z"/>
<path class="st0" d="M257.1,275.3c0,0.1,0,0.2,0,0.3C257.1,275.4,257.5,275.6,257.1,275.3z"/>
<path class="st0" d="M271.1,282.5L271.1,282.5c-0.1,0.1-0.1,0.1,0,0.2C271.1,282.6,271.1,282.5,271.1,282.5z"/>
<path class="st0" d="M267.1,252.1l-0.3-0.4C266.9,251.8,267,251.9,267.1,252.1z"/>
<path class="st0" d="M265.7,250.4c0-0.1,0-0.2,0-0.4c0,0-0.1,0-0.1,0L265.7,250.4z"/>
<polygon class="st0" points="249.1,259.5 249,259.4 249,259.5 "/>
<path class="st0" d="M277.6,277.6l-0.3,0.1C277.4,277.8,277.5,277.7,277.6,277.6z"/>
<path class="st0" d="M276.1,278.8c0,0,0,0.1,0,0.1l0,0L276.1,278.8z"/>
<path class="st0" d="M274,259.3L274,259.3C273.8,259.2,273.9,259.3,274,259.3z"/>
<path class="st0" d="M280.8,265c-0.1,0-0.2-0.1-0.3-0.1C280.6,265,280.7,265.1,280.8,265z"/>
<polygon class="st0" points="267.1,252.1 267.1,252.1 267.1,252.1 "/>
<path class="st0" d="M280.2,264.6c0.1,0.1,0.2,0.2,0.3,0.3C280.4,264.8,280.3,264.7,280.2,264.6z"/>
<path class="st0" d="M269.6,283.5L269.6,283.5L269.6,283.5C269.6,283.4,269.6,283.5,269.6,283.5z"/>
<path class="st0" d="M269.4,283.7l0.1-0.2C269.5,283.6,269.4,283.6,269.4,283.7z"/>
<path class="st0" d="M272.3,281.7c-0.2,0.1-0.5,0.1-0.6,0.3v0.1C271.7,281.9,272.3,281.9,272.3,281.7z"/>
<polygon class="st0" points="283.8,267.9 283.5,267.8 283.6,268 "/>
<path class="st0" d="M220.4,291.5c0,0-0.1,0-0.1,0.1L220.4,291.5L220.4,291.5z"/>
<path class="st0" d="M225.8,286.5c-0.1,0-0.2-0.1-0.2-0.1C225.7,286.5,225.6,286.8,225.8,286.5z"/>
<path class="st0" d="M220.4,291.5L220.4,291.5c-0.1,0-0.1,0.1-0.1,0.1C220.4,291.6,220.4,291.5,220.4,291.5z"/>
<path class="st0" d="M249.8,291.3c0.1,0,0.1,0.1,0.1,0.2c0,0,0,0,0-0.1C249.9,291.4,249.9,291.3,249.8,291.3z"/>
<path class="st0" d="M249.8,291.1L249.8,291.1z"/>
<polygon class="st0" points="235.4,277.2 235.4,277.1 235.4,277.2 "/>
<path class="st0" d="M224.2,292.5c0,0,0,0.1,0,0.1l0,0V292.5z"/>
<path class="st0" d="M242.5,292.9L242.5,292.9C242.6,292.8,242.6,292.8,242.5,292.9z"/>
<path class="st0" d="M237.1,293.9c0.1-0.1,0.1-0.1,0.2-0.1C237.1,293.7,237.1,293.7,237.1,293.9z"/>
<polygon class="st0" points="248.4,291.6 248.4,291.6 248.4,291.6 "/>
<path class="st0" d="M237.5,293.7c-0.1,0-0.2,0-0.3,0C237.3,293.8,237.4,293.8,237.5,293.7z"/>
<path class="st0" d="M220.9,291.5L220.9,291.5c0.1-0.1,0.3,0.4,0.4,0.3C221.2,291.7,221.1,291.5,220.9,291.5z"/>
<polygon class="st0" points="234.5,293.4 234.5,293.7 234.7,293.6 "/>
<path class="st0" d="M188.3,271.2c-0.1,0-0.1-0.1-0.2-0.1L188.3,271.2L188.3,271.2z"/>
<path class="st0" d="M189.6,266.7L189.6,266.7C189.6,266.7,189.6,266.7,189.6,266.7z"/>
<path class="st0" d="M197,259.4c-0.1,0-0.2,0-0.3-0.1C196.9,259.5,196.6,259.9,197,259.4z"/>
<path class="st0" d="M188.4,271.3L188.4,271.3c-0.1-0.1-0.2-0.1-0.2,0C188.2,271.3,188.3,271.3,188.4,271.3z"/>
<path class="st0" d="M221.2,268l0.4-0.4C221.4,267.8,221.3,267.9,221.2,268z"/>
<path class="st0" d="M222.6,266.5c0.1,0,0.2,0,0.4-0.1c0,0,0-0.1,0-0.1L222.6,266.5z"/>
<polygon class="st0" points="211.6,241.1 211.6,241.1 211.6,241.2 "/>
<path class="st0" d="M193.7,277.3l-0.2-0.3C193.6,277.1,193.7,277.2,193.7,277.3z"/>
<path class="st0" d="M192.5,275.9l-0.1,0.1l0,0L192.5,275.9z"/>
<path class="st0" d="M214.4,274.9L214.4,274.9C214.5,274.7,214.4,274.8,214.4,274.9z"/>
<path class="st0" d="M208.1,280.9c0-0.1,0.1-0.2,0.1-0.3C208.1,280.7,208,280.8,208.1,280.9z"/>
<polygon class="st0" points="221.1,268 221.1,268 221.2,268 "/>
<path class="st0" d="M208.2,280.6c0.1-0.1,0.2-0.1,0.3-0.2C208.4,280.4,208.3,280.5,208.2,280.6z"/>
<path class="st0" d="M187.2,269.9L187.2,269.9L187.2,269.9L187.2,269.9z"/>
<path class="st0" d="M186.9,269.7l0.2,0.1C187.1,269.8,187,269.7,186.9,269.7z"/>
<path class="st0" d="M188.8,271.9c0.2,0,0.2,0.6,0.4,0.6C189.1,272.3,189.1,272,188.8,271.9L188.8,271.9z"/>
<polygon class="st0" points="204.6,283.2 204.9,283 204.6,283 "/>
<path class="st0" d="M205,177.6c0.1-0.1,0.1-0.1,0.2-0.2L205,177.6L205,177.6z"/>
<path class="st0" d="M208.1,180.7L208.1,180.7C208.1,180.7,208.1,180.7,208.1,180.7z"/>
<path class="st0" d="M207.5,195.2c0.1-0.1,0.2-0.2,0.3-0.2C207.6,195.1,207.6,194.4,207.5,195.2z"/>
<path class="st0" d="M204.9,177.6l0.1-0.1c0,0,0-0.1-0.1-0.1C204.9,177.5,204.9,177.6,204.9,177.6z"/>
<path class="st0" d="M174.4,229.9l-0.1,0.8C174.4,230.4,174.4,230.1,174.4,229.9z"/>
<path class="st0" d="M174.4,232.9c-0.1,0.1-0.2,0.3-0.2,0.4c0,0,0,0.1,0.1,0.1L174.4,232.9z"/>
<polygon class="st0" points="200.4,226.9 200.5,226.9 200.4,226.7 "/>
<path class="st0" d="M195.5,184l0.4-0.2C195.8,183.8,195.6,183.9,195.5,184z"/>
<path class="st0" d="M197.6,182.5c0,0,0-0.1,0-0.1l0,0V182.5z"/>
<path class="st0" d="M175.9,216.4c0,0,0,0.1,0,0.1C175.9,216.7,175.9,216.6,175.9,216.4z"/>
<path class="st0" d="M179.4,204.7c0,0.1,0,0.3-0.1,0.4C179.5,204.9,179.6,204.7,179.4,204.7z"/>
<polygon class="st0" points="174.4,229.8 174.4,229.8 174.4,229.9 "/>
<path class="st0" d="M179.4,205.1c-0.1,0.2-0.2,0.3-0.2,0.5C179.2,205.4,179.3,205.3,179.4,205.1z"/>
<path class="st0" d="M207.1,176.4L207.1,176.4l-0.1,0.1L207.1,176.4z"/>
<path class="st0" d="M207.1,176.4l0.1-0.1C207.2,176.3,207.1,176.3,207.1,176.4z"/>
<path class="st0" d="M207.5,176.1l-0.2,0.2C207.3,176.2,207.4,176.2,207.5,176.1z"/>
<path class="st0" d="M203.1,178.6c0.2-0.1,0.6-0.1,0.9-0.4v-0.1C204,178.4,203.2,178.3,203.1,178.6z"/>
<polygon class="st0" points="182.2,200.1 182.5,199.9 182.4,199.6 "/>
<path class="st0" d="M241.8,169.6c0.1,0,0.2,0,0.2-0.1L241.8,169.6L241.8,169.6z"/>
<path class="st0" d="M246.3,176.2L246.3,176.2C246.3,176.2,246.3,176.2,246.3,176.2z"/>
<path class="st0" d="M246.7,190.9c-0.2,0.1-0.3-0.6-0.3,0.2C246.5,191.1,246.6,191,246.7,190.9z"/>
<path class="st0" d="M241.8,169.4c0,0.1-0.1,0.1-0.2,0.1h0.2C241.8,169.5,241.9,169.4,241.8,169.4z"/>
<path class="st0" d="M226.5,216.9l0.1,0.8C226.6,217.4,226.5,217.2,226.5,216.9z"/>
<path class="st0" d="M226.9,220c-0.1,0.1-0.1,0.3-0.1,0.5c0,0,0.1,0.1,0.1,0.1L226.9,220z"/>
<polygon class="st0" points="243.4,224.5 243.4,224.5 243.4,224.4 "/>
<path class="st0" d="M226.6,169.7c0,0,0.1,0.1,0.1,0.1C226.7,169.7,226.7,169.7,226.6,169.7z"/>
<path class="st0" d="M230.1,169.3l0.5,0.1C230.4,169.3,230.2,169.3,230.1,169.3z"/>
<path class="st0" d="M232.7,169.3c0,0,0-0.1,0-0.1l0,0V169.3z"/>
<path class="st0" d="M224.8,202.9c0,0,0,0.1,0,0.1C224.9,203.2,224.9,203,224.8,202.9z"/>
<path class="st0" d="M223.7,190.2c0.1,0.1,0.1,0.3,0.1,0.4C223.8,190.4,223.8,190.2,223.7,190.2z"/>
<polygon class="st0" points="226.5,216.8 226.5,216.8 226.5,216.9 "/>
<path class="st0" d="M223.8,191.2c0-0.2,0-0.4,0-0.6C223.8,190.8,223.8,191,223.8,191.2z"/>
<path class="st0" d="M244.3,169.9h-0.1H244.3C244.3,169.9,244.3,169.9,244.3,169.9z"/>
<path class="st0" d="M244.8,169.8h-0.3C244.5,169.9,244.7,169.9,244.8,169.8z"/>
<path class="st0" d="M240.6,169.5c-0.2,0.1-0.8-0.3-1-0.1C240,169.5,240.3,169.5,240.6,169.5L240.6,169.5z"/>
<polygon class="st0" points="223.9,184.8 224,184.4 223.8,184.2 "/>
<path class="st0" d="M298.7,229.5c-0.2-0.3-0.5-0.7-0.8-0.5c0.3,0.3,0.2,0.4,0.6,0.7c0,0.3-0.1,0.5-0.2,0.4c0.1,0.1-0.1,0.4,0.2,0.6
	c0.2-0.4,0.2-0.9,0-1.3C298.5,229.4,298.6,229.5,298.7,229.5z"/>
<path class="st0" d="M297.7,225.8c0,0.1,0.1,0.2,0.1,0.2L297.7,225.8L297.7,225.8z"/>
<path class="st0" d="M297.1,237.8L297.1,237.8C297.1,237.8,297.1,237.8,297.1,237.8z"/>
<path class="st0" d="M294.1,252c0.1-0.1,0.2-0.1,0.3-0.1C294.2,251.9,294.3,251.2,294.1,252z"/>
<path class="st0" d="M297.7,225.7v0.2c0,0,0.1,0,0.1,0C297.7,225.8,297.7,225.7,297.7,225.7z"/>
<path class="st0" d="M262.8,176.7c-0.1,0-0.2,0-0.2,0l0.1,0.1L262.8,176.7z"/>
<polygon class="st0" points="275.2,235.2 275.1,235.3 275.3,235.3 "/>
<path class="st0" d="M294.8,211.1c0,0,0,0.1,0,0.1C294.8,211.2,294.8,211.1,294.8,211.1z"/>
<path class="st0" d="M295.8,214.4v0.5C295.8,214.7,295.8,214.5,295.8,214.4z"/>
<path class="st0" d="M296.3,216.9c0,0,0.1,0,0.1,0l0,0H296.3z"/>
<path class="st0" d="M274,182.8L274,182.8C273.7,182.6,273.9,182.7,274,182.8z"/>
<path class="st0" d="M283.4,190.9c-0.1-0.1-0.2-0.1-0.4-0.2C283.2,190.8,283.3,191,283.4,190.9z"/>
<polygon class="st0" points="263,176.2 263,176.2 263,176.2 "/>
<path class="st0" d="M283,190.6c-0.1-0.2-0.2-0.3-0.4-0.4C282.7,190.4,282.8,190.5,283,190.6z"/>
<path class="st0" d="M297.8,228.3L297.8,228.3v-0.1V228.3z"/>
<path class="st0" d="M297.9,228.4c0,0.1,0,0.2,0.1,0.3L297.9,228.4z"/>
<path class="st0" d="M297.5,223.6c-0.1,0.3-0.1,0.7,0,1h0.1C297.4,224.5,297.7,223.9,297.5,223.6z"/>
<polygon class="st0" points="286.5,195.3 286.6,195.7 286.9,195.7 "/>
<path class="st0" d="M270.5,300.3c-0.1,0-0.1-0.1-0.1-0.2c-0.1,0.3,0,0.5,0.2,0.8C270.6,300.5,270.7,300.6,270.5,300.3
	c0.1-0.2,0.3-0.1,0.3,0c0-0.1,0.2,0,0.1-0.2C270.8,300,270.6,300.1,270.5,300.3z"/>
<path class="st0" d="M269.5,301.5c0,0,0-0.1,0-0.1V301.5L269.5,301.5z"/>
<path class="st0" d="M207.2,304c0-0.1,0-0.2,0-0.3C207.2,304,206.9,303.9,207.2,304z"/>
<path class="st0" d="M269.4,301.5L269.4,301.5C269.4,301.5,269.4,301.4,269.4,301.5C269.4,301.4,269.4,301.5,269.4,301.5z"/>
<path class="st0" d="M244.1,309.3c0-0.1-0.1-0.1-0.2-0.2c0,0,0,0.1,0,0.1L244.1,309.3z"/>
<polygon class="st0" points="219.7,307.9 219.7,307.8 219.6,307.9 "/>
<path class="st0" d="M266.2,302.9c0,0,0-0.1,0-0.1l0,0V302.9z"/>
<path class="st0" d="M250.6,308L250.6,308C250.5,308.1,250.6,308,250.6,308z"/>
<path class="st0" d="M255.2,306.3c0,0.1-0.1,0.1-0.1,0.2C255.2,306.4,255.3,306.4,255.2,306.3z"/>
<polygon class="st0" points="245.3,309.2 245.3,309.1 245.2,309.1 "/>
<path class="st0" d="M255.1,306.4c-0.1,0-0.2,0-0.2,0C255,306.5,255.1,306.5,255.1,306.4z"/>
<path class="st0" d="M270.3,301.1L270.3,301.1L270.3,301.1z"/>
<path class="st0" d="M270.5,300.9l-0.1,0.1C270.4,301,270.5,301,270.5,300.9z"/>
<path class="st0" d="M268.7,301.8c0.1,0,0.3,0.1,0.4,0v-0.1C269.1,301.9,268.7,301.6,268.7,301.8z"/>
<polygon class="st0" points="257.4,306 257.5,306.1 257.5,305.8 "/>
<path class="st0" d="M196.6,297.6c-0.7-0.2-1.5-0.4-1.3,0.1c0.8,0.1,0.8,0.3,1.7,0.3c0.5,0.3,0.8,0.6,0.7,0.7c0.2,0,0.8,0.5,1.2,0.5
	c-0.7-0.7-1.5-1.1-2.4-1.4C196.3,297.6,196.6,297.6,196.6,297.6z"/>
<path class="st0" d="M189.5,293.8c0.2,0.1,0.3,0.2,0.5,0.2L189.5,293.8L189.5,293.8z"/>
<path class="st0" d="M283.8,293.2L283.8,293.2C283.8,293.2,283.7,293.3,283.8,293.2z"/>
<path class="st0" d="M189.2,293.6l-0.4-0.3C189,293.4,189.1,293.5,189.2,293.6z"/>
<path class="st0" d="M304.4,268.8c-0.1,0.1-0.3,0.2-0.5,0.3C304.2,269.1,303.5,270.5,304.4,268.8z"/>
<path class="st0" d="M189.6,293.6c-0.1,0-0.2,0-0.3-0.1l0.3,0.2C189.5,293.8,189.6,293.7,189.6,293.6z"/>
<path class="st0" d="M186.4,170.7l1.4-1C187.3,170,186.8,170.4,186.4,170.7z"/>
<path class="st0" d="M305.5,196.2c0-0.1-0.1-0.2-0.2-0.3L305.5,196.2z"/>
<path class="st0" d="M191.7,166.7c0.3-0.1,0.6-0.2,0.9-0.4c0-0.1,0.1-0.1,0.1-0.2L191.7,166.7z"/>
<path class="st0" d="M302.8,191.1l0.2,0.3L302.8,191.1z"/>
<path class="st0" d="M198.3,162.7l0.2-0.1L198.3,162.7z"/>
<path class="st0" d="M167.3,194.4c-0.3,0.5-0.7,1.1-0.4,1.1c0.1-0.2,0.1-0.3,0.2-0.5l0.1-0.1C167.1,194.8,167.2,194.6,167.3,194.4z"
	/>
<path class="st0" d="M313.9,233.1c0-0.3,0.1-0.5,0.2-0.2c0.1-1.2-0.2-0.1-0.3-0.7s0.2-0.9,0.3-0.5c-0.1-1.1-0.4-2.6-0.5-4.2
	c-0.1-0.8-0.1-1.6-0.1-2.3s-0.1-1.4-0.1-2l0.1,0.4c-0.1-1.8-0.9-1.9-0.8-3.6l0.1,0.3c-0.2-2-0.5-3.9-1-5.8c-0.2-0.9-0.3-1.9-0.6-2.7
	c-0.2-0.8-0.4-1.6-0.5-2.4c-0.6-0.4-0.9-3.8-1.6-3.8c-0.3-1.6-0.7-3.1-1.2-4.7c-0.3-0.8-0.8-1-1.3-1.9l0.3-0.1l-0.9-1.1V197
	l-0.5-0.8c0.1,0.4,0.2,0.8,0.1,0.8c-0.4-0.7-0.7-1.4-1-2.2c-0.2-0.4-0.4-0.8-0.4-1.3l-2-3c0.1,0,0.3,0.3,0.6,0.6
	c-0.8-1.1,0.2-0.3-0.8-1.6c0.1,0.2-0.2,0-0.3,0c-0.7-1.3-1.4-2.5-2.4-3.6l0.3,0.1c-0.4-0.6-0.8-1.1-1.2-1.7s-0.9-1.1-1.4-1.6
	c-0.9-1.1-1.9-2.2-2.9-3.4c0.6,0.9,0.2,0.9-0.4,0.3v-0.5c-0.5-0.3,0.5,0.7-0.4,0.1c-0.7-0.8-0.2-0.8,0.3-0.4l-1-0.9
	c0-0.1,0.3,0.1,0.4,0c-0.5-0.3-1.4-1.9-2.2-2.2v-0.1c-0.8-0.9-1.7-1.7-2.7-2.4c-0.8-0.6-1.5-1.3-2.4-2.1c-0.2,0.2-0.9-0.5-1.6-0.7
	c-1.5-1.3-3-2.6-4.6-3.7c-1.4-0.7-0.5,0-1.2-0.3c0-0.3-1.8-1.4-0.7-1l-2.6-1.6c-0.8-0.5-1.7-0.8-3.2-1.5c0.3,0.3,0.6,0.5,0.4,0.5
	c-0.5-0.2-1.1-0.7-1-0.8h0.1c-0.9-0.4-1.8-0.8-2.6-1.3c-0.9-0.4-1.8-0.9-2.7-1.4s-1.8-0.9-2.6-1.3c-0.8-0.3-1.6-0.5-2.4-0.7h0.2
	l-3-0.7c-1.3-0.5,0.9,0.1-0.1-0.4c-3.2-0.6-5-1.4-7.7-1.7c-1.5-0.6-3.1-1-4.7-1.1c-1.8-0.1-3.6-0.3-5.4-0.6l0.1,0.2
	c-0.7,0.1-0.9-0.1-1.4-0.2c0.1,0.1,0.8,0.2,0.3,0.3c-6.4-0.3-12.7,0.1-19,1c-2.3,0.4-1.1,1.2-4,1.4l0.7-0.5c-1.1,0.4-2.2,0.7-3.3,1
	l-0.7,1.6l0,0l0.7-1.6c-1.7,0.6-3.4,1.2-5.1,1.7c-0.8,0.3-1.7,0.6-2.5,1c-0.8,0.4-1.6,0.8-2.4,1.1c0.2-0.2,0.2-0.3,0.6-0.4
	c-1,0.2-3.3,1.4-3.2,1.6c-0.6,0.3-0.2-0.1-0.7,0c-0.9,0.3-2,1.4-2.6,1.4c-0.1,0,0-0.1,0.2-0.2c-0.7,0.4-2.4,1.2-1.8,1.2
	c-1.5,0.8-2.7,1.9-3.9,2.5c-0.4,0.4-0.9,0.8-1.5,1.1c-0.5,0.4-1,0.7-1,1c-0.2-0.4-2.6,1.5-3.3,2.4c0.2-0.3-0.8,0.5-0.6,0.1
	c-0.9,0.8-1.7,1.6-1.4,1.7c-2.1,1.1-3.1,3.3-4.4,3.8c-1.2,1.4-2.4,2.7-3.4,4.1l-3,4c-0.3-0.4,2.2-2.9,1.8-3
	c-0.9,1.3-1.6,2.3-2.3,3.4c-0.7,1.2-1.4,2.3-2.2,3.4c-0.5,0.6,0.1-0.5,0.2-0.8c-0.8,1.3-1.7,2.6-2.4,3.9s-1.4,2.5-2,3.8
	c0.5-0.3-0.5,2.3-0.4,2.4c-0.1-1.1-1.3,2.4-1.4,0.8c-0.1,0.3-0.2,0.8-0.1,0.8c-0.3,0.5-0.4,0.6-0.3,0c-0.7,1.8-0.3,1.2-0.9,2.9
	c-0.1,0,0-0.4,0-0.6c-0.1,1.1-0.4,2.2-0.9,3.2c0-0.1-0.2,0,0-0.4c-1,2.4-0.9,4.3-1.9,6.9c-0.2-0.9-0.4,0.9-0.8,0.9
	c-0.1,0.5-0.2,1-0.2,1.5l0.3-0.6c-0.3,1.3-0.2,2.5-0.6,3.6l0.1-1l-0.4,2.4l0.4-1.4c-0.1,1.4,0.5-0.1,0,1.6c0-0.2-0.1,0.1-0.2,0.6
	c-0.1,0.5-0.2,0.9-0.4,1.4l0,0c0.1,0.8,0,1.5-0.1,2.3c-0.1,0.2-0.4-0.2-0.5-0.1c0.2,0.7-0.3,3.1,0,3.9c-0.1-0.3-0.3-0.3-0.3-0.2
	l0.2,0.6c-0.1,0.6-0.1,0.7-0.3,0.6c-0.1,1.8,0.5-0.6,0.2,1.6c0-0.1-0.1-0.3-0.1-0.4c-0.1,1.1-0.1,2.1-0.1,3.2c0.1,1,0.1,2.1,0.1,3.1
	c-0.4,0.6-0.2-1.8-0.4-1.1c0.2,2.9,0.8,6,1.1,8.8v-0.5c0.6,0.3,0,2.1,0.6,3.5c-0.1-0.3-0.4-0.4-0.3-0.3c0.4,2.3,1,4.5,1.8,6.6
	l-0.2-0.3c0.3,1.4,0.6,2.7,1.1,4.1c0.2,0.3,0.4,1,0.5,0.5c0.5,3.9,2.9,6.6,3.8,9.9c-0.2-0.4-0.5-0.8-0.4-0.5
	c0.4,0.9,0.9,1.7,1.4,2.5c0.1-0.3-0.1-0.4-0.2-1c0.4,0.5,0.8,1,1.1,1.5c-0.7-1.1-0.3,0.2-0.2,0.7c0-0.1,0.2,0,0.2-0.1
	c0.4,1.5,0.5,0,1.3,1.9h-0.2c0.5,0.6,0.9,1.2,1.4,1.8c0,0.4-0.5-0.6-0.8-0.5c0.6,1,1.6,1.6,2,2.6c-0.3-0.4-0.7-1-1.1-1.3
	c0.2,0.7,0.5,1.3,0.9,1.9V275c0.3,0.6,0.7,1.1,1,1.7l-0.2-0.5c1.4,0.8,1.9,2.3,3.4,3.5c-1.5-1.2-0.4-0.1-0.7,0
	c0.2,0.4,0.7,1.1,0.5,1c0.8,0.6,0.8,1.3,2,2c0,0.1,0.6,0.7,0.3,0.8c0.9,0.9-0.1-0.3,0.1-0.3c1.5,1.1,2.7,3.5,5,4.9
	c1.2,0.8,2.4,1.6,3.6,2.3l0.6,0.5c0.2,0.3-0.8-0.2-0.8-0.2c0.7,0.8,1.5,1.4,2.4,1.9c-0.2-0.1-0.1,0.1,0.1,0.4
	c0.7,0.5,0.7,0.1,1.5,0.9c-0.3,0-0.6-0.1-0.9-0.2c0.9,0.6,1.8,1,2.8,1.5c0.1,0.3-0.7-0.1-1-0.3c1,0.7,2,1.2,3.1,1.6l-0.4-0.4
	c0.1,0.1-0.1,0.2-0.4,0.1c-1-0.4-1.2-0.9-1.2-1l0.7,0.4c-0.3-0.9-2.6-1.6-3.8-2.6h0.6c3.1,2.3,6.4,4.4,9.8,6.2l0,0
	c-0.1,0.1-0.2,0.3-0.2,0.4c-0.1-0.1-0.3-0.2-0.4-0.3l-0.5,0.1l0.9,0.4l0,0c-0.1,0.2-0.1,0.4,0,0.6l0.4-0.1v0.2l-0.2-0.1
	c0,0.3,0.2,0.1,0.4,0.1c0,0.1,0,0.2,0,0.3l0.5-0.3c0,0.2-0.3,0.3-0.1,0.4c0.2-0.1,0.1-0.4,0.3-0.4c0,0.3-0.1,0.4,0.1,0.3
	c0,0.1-0.1,0.2-0.2,0.2c0.2-0.1,0.4,0.1,0.6-0.1c0,0.3,0.5,0.2,0.3,0.6c0.2-0.1,0.3-0.2,0.5-0.1c-0.5,0.4,0.5,0.2,0.2,0.7
	c0.4-0.4,0.7,0.1,1.1,0c0,0-0.1,0.1-0.1,0c0.2,0.1,0.1,0.3,0.2,0.4c0.2-0.4,0.5-0.3,0.7-0.5c0.1,0.4-0.3,0.4-0.4,0.7
	c0.1-0.3,0.5-0.1,0.5-0.4c0.1,0.3,0.1,0.2,0.1,0.5c0.2-0.4,0.2,0,0.4-0.2c0.1,0.3-0.1,0.5,0.2,0.4c0.1,0.2-0.2,0.2-0.2,0.2
	c0.3,0.1,0.3-0.3,0.4-0.5c0.4,0,0,0.3,0.1,0.5c0.2,0,0.5-0.2,0.7-0.2c0,0.1,0,0.1-0.1,0.1c0.3-0.2,0.6,0.2,1,0c0,0,0,0.1,0,0.1
	c0-0.2,0.1-0.3,0.1-0.5c0.1,0,0.3-0.1,0.3,0.1c-0.1,0-0.1,0-0.2,0.1h0.2c0,0.4-0.2,0-0.3,0.3c0.3,0,0.7-0.2,0.8,0
	c-0.1,0.3-0.5-0.1-0.3,0.3l-0.2-0.2c0,0.6-0.2-0.1-0.2,0.5c0.4,0.2,0.5,0,0.8,0.2c0.1-0.1,0.1-0.3,0.2-0.4c0.7-0.1,0.1,1,0.7,0.7
	c0.2-0.2,0.4-0.6,0.6-0.2l-0.2,0.3c0.4,0.2,0.4-0.4,0.7-0.1c-0.1,0.1-0.3,0-0.3,0.1c0.1,0.4,0.2-0.1,0.4-0.1l-0.1,0.3
	c0.4,0.1,0.9,0,1.4,0.1c-0.1,0.1-0.2,0.2-0.1,0.3c0.6,0.1,1.2,0.4,1.7,0.8l0.3-0.2c0,0,0.1,0.1,0,0.2c0.2,0.2,0.1-0.2,0.2-0.3
	s0.1,0.2,0,0.3c0.4-0.1,1.2-0.2,1.5,0.2l-0.1,0.1c0.3,0.2,0.5-0.5,0.7-0.1h-0.1c0.6,0.3,1.4,0.2,1.9,0.8c0.2-0.4,0.6,0.3,0.8-0.2
	c0.3,0.4,0.2,0.5,0.7,0.8c0.1,0.1,0.3-0.3,0.5-0.3l-0.1,0.3l0.3-0.3l0.1,0.4h0.2c-0.1-0.1-0.1-0.2-0.1-0.2c0.3-0.1,0.6,0.3,0.6,0.5
	l0.7-0.1c0,0.1-0.1,0.1-0.2,0.2c0.4-0.2,0,0.3,0.4,0.1c0-0.1,0.1-0.2,0.1-0.2c0.1,0.2,0.5,0.3,0.8,0.2l-0.1,0.2
	c0.5,0.1,1,0.1,1.6,0.2c-0.2-0.1-0.1-0.5,0.1-0.5v0.3c0.1-0.2-0.1-0.1,0.1-0.4c0.2,0.1,0.1,0.4-0.1,0.5l0.3-0.1
	c0,0.1-0.1,0.1-0.1,0.3c0.1-0.2,0.4,0.4,0.6,0v0.1c0.5,0.1,0.8,0,1.2,0c0-0.3,0.2-0.2,0.4-0.4c0.3,0.2,0.6,0.3,1,0.4
	c0.3-0.1,0.1-0.2,0.2-0.4c0,0.3,0.4,0.3,0.2,0.4c0.4,0,0.8,0,1.2-0.1c-0.1-0.1-0.1-0.2-0.1-0.2s0.2,0.1,0.2,0.2l0,0
	c0.7-0.3,1.5,0.9,2,0.4l0,0l0.6-0.2c0.2,0.1-0.2,0.2,0,0.4c0.6-0.4,0.9,0.1,1.4-0.2c0.4,0.8,1.3,0,1.8,0.5v-0.2
	c0.1-0.2,0.2,0.1,0.2,0.1c0-0.1-0.1-0.2-0.1-0.3c1.2,0,2.3,0.1,3.4,0.4c0.4,0,0.2-0.9,0.7-0.5l-0.1,0.3c0.8-0.4,1.7-0.1,2.5-0.5
	c0,0.1,0,0.2-0.1,0.2c0.2,0.2,0.6,0,0.6-0.2c0.1,0,0,0.2,0.1,0.3s0.4-0.3,0.5-0.1c0,0,0,0.1-0.1,0.1s0.5,0,0.4-0.3
	c0.3,0.1,0.6-0.2,0.8,0c0.1-0.3,0.5,0.1,0.5-0.4c0,0.5,0.6,0.3,0.8,0.1c0,0.1,0.2,0.1,0.1,0.3c0.2,0,0.4-0.1,0.4-0.4
	c0.5,0.5,0.8-0.5,1.1,0.1c0.6-0.3,1.2-0.6,1.8-0.8c0.1,0.5-0.6,0.1-0.5,0.6c0.5-0.3,0.8-0.7,1.4-0.7c0.1,0,0,0.2-0.1,0.3
	c0.5-0.3,1.1-0.1,1.5-0.5c0,0,0,0.1-0.1,0.1s0.2,0,0.2-0.2l-0.1,0.1c-0.2-0.3,0.3-0.7,0.2-0.8c0,0.6,0.5,0,0.4,0.8
	c0.1-0.1,0.1-0.2,0.1-0.3c0.1,0,0.1,0.1,0.1,0.3c0.3-0.2,0.2-0.4,0.5-0.4c0,0.1,0,0.1,0,0.3c0.1-0.2,0.2-0.5,0.5-0.4
	c0,0.1,0,0.1,0,0.1c0.4-0.1,0.7-0.7,1.2-0.6c0,0.5,0.2,0.1,0.3,0.5l0.2-0.2l-0.1-0.1c0.2,0,0.4-0.4,0.6-0.3l-0.1,0.2l0.4-0.2
	l-0.3-0.1c0.2-0.2-0.1-0.5,0.2-0.4c-0.1,0,0.2,0,0.4,0.1l0,0c0.1-0.1,0.2-0.3,0.4-0.2s0.1,0.4,0.1,0.5c0-0.3,0.5-0.2,0.6-0.6
	c0,0.1,0,0.2,0,0.3v-0.3c0.1,0,0.1,0.1,0.2,0.2c0.3,0-0.2-0.4,0.2-0.3c0,0,0,0.1,0,0.1c0.4,0,0.7-0.4,1.1-0.4
	c0.2,0.3-0.3,0.2-0.1,0.5c0.5-0.2,0.9-0.7,1.4-0.8H259c-0.1-0.5,0.4,0.1,0.6-0.2c0,0.1,0,0.3,0,0.2c0.4,0,0.6-0.3,1.1-0.7v0.1
	c0.2,0,0.5-0.1,0.8-0.1c0-0.1,0.1-0.2,0-0.3c0.9,0.5,1.1-0.8,1.9-0.4c-0.1,0-0.1,0.2-0.1,0.1l0.4-0.3c-0.1-0.2-0.1-0.1-0.3-0.2
	c0-0.1,0.1-0.3,0.2-0.4c-0.2,0.2,0.1,0.4,0.3,0.4c0-0.1,0-0.1-0.1-0.2c0.4,0.3-0.1-0.5,0.3-0.3v0.1c0.1-0.1,0.2-0.3,0.3-0.3
	c0.2,0.2-0.1,0.2,0,0.4c0.2-0.1,0.2-0.6,0.5-0.4c0,0.1-0.2,0.1-0.2,0.2c0.3,0.2,0.3,0.1,0.5,0.1h0.4h-0.1c0-0.8,0.4-0.3,0.6-0.9
	c-0.1,0.5,0,0.2,0.1,0.5c0.1,0,0.3,0.1,0.3,0.2c0.1-0.3,0.3,0.1,0.4-0.4c0,0.1,0.2-0.1,0.2,0.2c0.2-0.2-0.1-0.1-0.1-0.2
	c0.2-0.4,0.9,0,1.1-0.6c0.3-0.3,0.2-0.6,0.5-0.9h0.1c0.1,0.1,0,0.3,0,0.3c0.2,0,0.4,0,0.5-0.2c0,0.1,0.1,0.1,0.2,0.2
	c0.1-0.1-0.1-0.4,0.2-0.3c0,0.1,0,0.3,0,0.4c0.1-0.2,0.2-0.4,0.4-0.6c0.1,0.1,0,0.3,0,0.4c0.2-0.2,0.4-0.4,0.4-0.7H270
	c0.1,0,0.1,0.2,0.1,0.3c-0.1,0.3-0.3,0-0.3,0l0.1-0.1c-0.4-0.5-0.5,0.3-0.7,0.4l-0.1-0.4c0.6-0.3,1.2-0.6,1.9-0.9l-70-0.3l0,0
	l70,0.3l0.1-0.1c0,0.2,0,0.3,0,0.5l0,0l0.1,0.3l0.1-0.1l0,0c0.2,0.1,0.7,0,1.7-0.3c0.5-0.4,0.9-0.7,1.4-1.1l0.6-0.1l-1.2,0.7
	c0.6-0.2,1.2-0.5,1.6-1c0.3,0,0.5,0,0.8-0.1c0.4-0.4,0.8-0.8,1.2-1.3c0.3,0-0.4,0.7,0.6,0.2c0.5-0.6-0.9,0.1,0.2-0.8
	c0.8-0.3,0.7,0,1.4-0.7c0.2,0,0,0.2-0.2,0.5c0.6-0.6,1.8-1.3,2-1.8c0.9-0.3,2.3-1.8,2.5-1.4c0.5-0.6,1-1.2,1.6-1.7
	c-0.8,1.3,2.3-1.9,2.3-1.2c0.5-0.7,1-1.4,1.7-2c0.8-0.7,1.5-1.5,2.1-2.3c-0.1,0.2-0.2,0.3-0.3,0.4c0.5-0.5,1-0.9,1.6-1.3
	c-0.2-0.4,0.9-1.6,1.3-2.5c1.1-0.7-0.2,0.9,0.4,0.8c-0.3-0.1,1.2-1.9,0.8-1.8c0.8-0.6,0.6-0.6,1.2-0.8c-0.3-0.4,0.5-0.8,0.8-1.6
	c1.1-1,0.6,0,1.4-1.4c0.6-0.5-0.1,0.7-0.1,0.7c1-1.3,0.2-0.8,0.2-1.2c1-1.6,0.8-0.5,1.3-1c0.6-1,0.8-2,1.3-2.7
	c0.1,0,0.2-0.2,0.1,0.1c0.2-0.4,0.3-0.8,0.6-1.1l0,0l0.5-0.9c0.5-0.8,1-1.7,1.3-2.6c0-0.1,0.1-0.1,0.2-0.1c-0.3,0.1-0.5,0.1-0.5,0
	c0.3-0.6,0.4-1.3,0.8-1.4c-0.1,0.2-0.2,0.4-0.2,0.7l0.3-0.7c0.6-0.4-0.4,1-0.1,1.1c0.6-1.3,1.1-3,1.7-3.9c0.4-0.1-1.1,2.4-0.1,1.2
	c-0.3,0.5-0.6,1-0.9,1.5c1.1-0.9-0.5,0.9,0.5,0.1c1.1-2,1-2.4,2-4.4c0-0.5-0.3,0-0.3-0.5c0.9-3.1,1.8-2,2.2-4.4
	c-0.2-0.9,0-1.8,0.4-2.6l0.2,0.7c0.8-2.1-0.1-1.4,0.8-3.5c0,0.4-0.4,1.7-0.2,1.4c0.7-1.4,0.1-1.1,0.4-2.2l0.4-0.1
	c0.6-2.3,0.9-4.9,1.3-7.5c0.1,0.2,0.1,0.6,0.3,0c0.4-3.3,1-7,1.3-10.1C314.1,233.9,314,233.5,313.9,233.1z M211.7,305.2h-0.1H211.7z
	 M212,305.3c0-0.1,0.1-0.2,0.1-0.2s0.1,0.1,0.1,0.2L212,305.3z M262.5,303.8c0-0.1-0.1-0.1-0.1-0.2l0.2-0.1
	C262.6,303.6,262.6,303.7,262.5,303.8L262.5,303.8z M267.7,301.6l-0.2-0.2l0.2-0.1C267.8,301.5,267.8,301.6,267.7,301.6L267.7,301.6
	z M269.1,301.1c-0.1-0.1-0.1-0.1-0.2-0.2l0.2-0.1L269.1,301.1z M281.4,274.5c0.1,0,0.1,0.1,0.2,0.1l-0.2,0.2
	C281.3,274.7,281.3,274.6,281.4,274.5z M250,269.2c0.1,0.1,0.2,0.2,0.3,0.3c0,0.1-0.1,0.1-0.2,0.1C250.1,269.6,250,269.4,250,269.2z
	 M250.7,269.9L250.7,269.9l0.2,0.2L250.7,269.9z M228.2,293.8c0-0.1,0.1-0.2,0.2-0.2c0,0.1,0,0.2,0,0.2L228.2,293.8z M220.2,292.3
	l0.3-0.2c0,0.1,0,0.2,0,0.3L220.2,292.3z M196.9,280.7c0.1-0.1,0.3-0.1,0.4,0c0,0.1-0.1,0.1-0.1,0.2L196.9,280.7z M189.5,273.8
	c0.1,0,0.2,0,0.4,0l-0.1,0.2L189.5,273.8z M221,268.8c-0.9,0.1-0.7,1.3-1.5,1.1c-0.6,0.9-1.3,1.8-2,2.6c-0.3-0.4,0.8-0.8,0.5-1.1
	c-0.6,0.8-0.8,1.5-1.6,2.1c-0.2,0.1,0-0.2,0-0.4c-0.6,0.8-1.4,1.3-2,2c0,0,0-0.1,0.1-0.2c-0.1,0.1-0.4,0.2-0.2,0.4l0.1-0.1
	c0.4,0-0.1,0.9,0,1.1c-0.2-0.6-0.8,0.5-0.9-0.4c-0.1,0.1-0.1,0.3,0,0.4c-0.2,0.1-0.2,0-0.2-0.2c-0.4,0.5-0.1,0.5-0.5,0.9
	c-0.1-0.1,0-0.2,0-0.3c-0.1,0.4-0.3,0.7-0.6,0.9c0-0.1-0.1-0.1,0-0.2c-0.6,0.5-0.8,1.3-1.6,1.7c-0.1-0.5-0.3,0.1-0.6-0.2l-0.3,0.4
	h0.3c-0.3,0.3-0.5,0.7-0.8,0.8l0.2-0.3l-0.6,0.5l0.4-0.2c-0.2,0.4,0.3,0.3-0.2,0.6c0.1-0.1-0.3,0.3-0.6,0.2l0,0
	c-0.1,0.3-0.3,0.5-0.5,0.6c-0.1,0-0.2-0.4-0.3-0.4c0,0.4-0.8,0.7-0.8,1.1c0-0.1,0-0.2-0.1-0.3v0.3c-0.2,0-0.2,0-0.3-0.1
	c-0.5,0.3,0.4,0.3-0.3,0.5c0,0,0-0.1,0.1-0.2c-0.6,0.3-1,0.9-1.6,1.2c-0.4-0.2,0.4-0.4,0-0.5c-0.3,0.2-0.5,0.5-0.8,0.8
	c-0.1,0.2-0.3,0.4-0.5,0.6c-0.1-0.1-0.3-0.1-0.4-0.2l0.1,0.1c-0.3,0.5-0.3-0.5-0.8-0.5c0.1,0,0.3-0.2,0.2-0.1c-0.6-0.4-1.3-0.8-2-1
	h0.2c-0.3-0.3-0.7-0.6-1-0.9c-0.2,0-0.3-0.1-0.4,0.1c-0.5-1.3-2.1-1.1-2.5-2.3c0.1,0.1,0.3,0.1,0.2,0l-0.8-0.5c-0.1,0.2,0,0.2,0,0.5
	c-0.2,0-0.4-0.1-0.6-0.2c0.4,0.1,0.2-0.3,0.2-0.5c0,0.1-0.1,0.1-0.2,0.2c-0.1-0.6-0.4,0.3-0.7-0.3l0.1-0.1c-0.2-0.1-0.5-0.1-0.7-0.4
	c0.1-0.3,0.3,0.1,0.4-0.1c-0.3-0.2-0.9-0.1-1-0.5c0.2,0,0.3,0.2,0.5,0.2c0-0.3-0.1-0.5-0.3-0.7l0,0l-0.4-0.5l0.1,0.2
	c-0.8,0.2-0.8-0.5-1.5-0.7c0.7,0.1,0.2-0.1,0.5-0.3c-0.1-0.2-0.2-0.4-0.1-0.4c-0.4,0-0.2-0.5-0.8-0.5c0.1-0.1-0.2-0.2,0-0.4
	c-0.3-0.2-0.1,0.2-0.2,0.2c-0.6-0.2-0.7-1.3-1.6-1.6c-0.6-0.4-0.9-0.3-1.4-0.6l-0.1-0.1c0.1-0.1,0.4,0,0.4,0
	c-0.1-0.3-0.3-0.6-0.6-0.8c0.1,0,0.1-0.1,0.1-0.3c-0.2-0.2-0.4,0.1-0.5-0.3c0.2,0,0.3,0,0.5,0c-0.3-0.2-0.6-0.3-0.9-0.5
	c0.1-0.2,0.3,0,0.5,0c-0.3-0.2-0.7-0.7-1-0.6l0.1,0.2c-0.1-0.1,0.1-0.2,0.2-0.1c0.2,0,0.3,0.2,0.2,0.3c0,0.1,0,0.1-0.1,0.2l-0.2-0.1
	c-0.3,0.6,0.7,0.7,1,1.1l-0.4,0.1c-0.7-0.9-1.4-1.7-2.1-2.6c0.1,0.1,0.2,0.2,0.3,0.2c0.1,0.1,0.2,0.2,0.4,0.3c0,0.1-0.1,0.1-0.2,0.1
	c0.3,0.1,0.6,0.1,0.8-0.2c-0.4,0-0.3-0.1-0.8-0.1c0,0-0.1-0.1-0.1-0.1c0.1,0,0.3,0,0.4-0.1l0.2-0.6l0.3,0.1l-0.3,0.3
	c0.3,0,0.3-0.3,0.4-0.5c0.1,0,0.2,0,0.3,0l0.1-0.7c0.2,0.1,0.1,0.4,0.4,0.3c0.1-0.3-0.4-0.1-0.2-0.5c0.3,0,0.4,0.2,0.5-0.2
	c0.1,0.1,0.1,0.2,0.1,0.3c0.1-0.3,0.5-0.5,0.4-0.8c0.4,0,0.6-0.7,0.9-0.3c0-0.3,0.1-0.5,0.3-0.8c0,0.7,0.7-0.6,1-0.1
	c-0.1-0.6,0.8-1,1-1.6c0,0,0,0.1-0.1,0.2c0.2-0.1,0.4-0.2,0.7-0.2c-0.2-0.3,0.1-0.7,0.1-1.1c0.6,0,0.1,0.5,0.5,0.7
	c-0.2-0.2,0.3-0.7,0-0.8c0.4,0,0.3-0.1,0.6,0c-0.3-0.4,0.2-0.3,0.1-0.7c0.5-0.1,0.4,0.2,0.7-0.2c0.3-0.1,0.1,0.4,0.1,0.4
	c0.4-0.4-0.1-0.4-0.1-0.7c0.4-0.5,0.4,0,0.7,0c0.2-0.3,0.2-0.8,0.4-1c0.1,0,0.1,0,0.1,0.1c0.1-0.5,0.8-0.9,0.9-1.5c0,0,0.1,0,0.1,0
	c-0.2-0.1-0.3-0.2-0.4-0.3c0.2-0.2,0.1-0.5,0.4-0.4c-0.1,0.1,0,0.2,0,0.3l0.1-0.2c0.4,0.1-0.1,0.3,0,0.5c0.2-0.4,0.4-1,0.7-1.2
	c0.3,0.2-0.5,0.7,0.1,0.5l-0.5,0.3c0.7,0.1-0.3,0.2,0.4,0.3c0.6-0.5,0.4-0.7,1-1.2c0-0.2-0.2-0.1-0.3-0.4c0.5-1,1.2,0,1.4-0.9
	c0-0.3-0.3-0.6,0.2-0.9l0.2,0.4c0.5-0.5-0.1-0.7,0.6-1.1c0,0.2-0.3,0.5-0.2,0.4c0.6-0.2,0.1-0.4,0.3-0.7l0.3,0.2
	c0.5-0.6,0.8-1.4,1.3-2.1c0,0.1,0,0.3,0.2,0.2c0.6-0.9,1.4-1.7,2.3-2.4v-0.5c0.1-0.1,0.2-0.1,0.2,0.1c0.3-0.2-0.1-0.1-0.1-0.4
	s0.3-0.1,0.3,0c0.3-0.9,0.8-1.7,1.5-2.3v0.2c0.4-0.4-0.1-0.9,0.4-1.1v0.1c0.9-0.9,1.4-2.2,2.4-2.8c-0.2-0.4,0.9-0.9,0.4-1.3
	c0.6-0.4,0.6-0.2,1.3-1c0.2-0.2-0.1-0.5,0-0.9l0.3,0.1v-0.6h0.4l0.1-0.3c-0.1,0.1-0.2,0.2-0.3,0.1c0.1-0.5,0.8-0.9,0.9-0.9l0.1-0.3
	c0-0.1,0.1-0.2,0.1-0.2c0-0.1,0-0.2,0-0.2c0,0.1,0.1,0.2,0.1,0.3c-0.2-0.4,0.2,0.2,0.1-0.1c-0.1-0.1-0.1-0.2-0.1-0.3
	c0.1,0.1,0.2,0.1,0.2-0.2v0.4c0,0,0.1-0.2,0.1-0.4c0,0,0,0,0.1,0c0-0.4,0.1-0.8,0.2-1.2l-0.1,0.8c0-0.3,0.1-0.5,0.2-0.8
	c0,0.4-0.1,0.7-0.2,1.1c0,0,0-0.1,0.1-0.1l-0.1,0.5c0.1-0.2,0,0,0,0.1s-0.1,0.2,0.1,0l-0.1,0.1c0,0,0,0,0.1,0.1h0.1c0,0,0,0,0,0.1
	l0.1,0.3c0.3-0.1,0.3,0.2,0.6,0.4c0,0.6,0.1,1.3,0.3,1.9c0.3,0.4,0.3,0.1,0.5,0.2c-0.2,0.1,0,0.8-0.3,0.5c0.2,0.7,0.5,1.3,0.9,1.9
	c0.1-0.1,0.1-0.3,0.2-0.2s0,0.4-0.1,0.5l0,0c0.7,1,0.2,2.8,1,3.5l0,0l0.6,0.8c0.1,0.4-0.3-0.2-0.3,0.2c0.8,0.8,0.6,1.6,1.2,2.3
	c-0.4,0.9,1,2.2,1,3.2l0.1-0.1c0.3,0.1,0,0.3,0.1,0.5c0.1-0.1,0-0.3,0.2-0.2c1.1,1.7,1.6,3.8,2.6,5.7c0.4,0.7,1-0.1,1.1,0.9l-0.4,0
	c0.5,0.6,1,1.2,1.4,1.8c0.2,0.3,0.4,0.6,0.7,0.9c0.1,0.1,0.2,0.1,0.3,0.2c-0.1,0-0.2,0-0.2,0c-0.2,0,0,0.1,0.1,0.2
	c-0.1,0-0.2-0.1-0.3-0.1s-0.1,0.6-0.4,0.5c0,0,0-0.1,0-0.2c0,0.2-0.6,0.7-0.3,0.7c-0.5,0.3-0.6,0.9-1,1c0,0.4-0.8,0.6-0.5,0.9
	c-0.3-0.3-0.9,0.4-1,0.8c0-0.2-0.3,0.1-0.4-0.1C220.9,268.3,220.7,268.6,221,268.8L221,268.8z M188,272.1l-0.3-0.4l0.4,0.1
	C188.1,272,188.1,272.1,188,272.1L188,272.1z M203,252.1c-0.1,0.1-0.2,0.2-0.3,0.3c-0.1,0-0.1-0.1-0.1-0.2c-0.1,0.1,0.1,0,0.3-0.1
	L203,252.1z M202.4,252.9l-0.1,0.2L202.4,252.9L202.4,252.9z M206.6,207.8c-0.1-0.1-0.2,0.2-0.3,0.4c0-0.2,0.1-0.4,0.1-0.6
	c0,0,0.1,0.1,0.1,0.2L206.6,207.8z M206.6,206.8v-0.4V206.8z M241.4,168.6l0.7,0.1l-0.6,0.2c-0.1,0-0.2-0.1-0.2-0.2L241.4,168.6z
	 M240.2,168.5h0.4c0.1,0.1-0.4,0.3-0.4,0.3c0.5,0.2,1,0.2,1.4,0.1c-0.1,0.1,0,0.2,0.1,0.3c0.4,0,0.3-0.3,0.8-0.1
	c-0.1,0.1-0.3,0.3-0.4,0.4c0.5,0,1-0.2,1.5-0.2c0.1,0.2-0.3,0.2-0.5,0.3c0.6,0,1.4,0,1.7-0.2l-0.3-0.1c0.2,0,0.1,0.2-0.1,0.3
	c-0.5,0.1-0.7-0.2-0.7-0.3h0.4c-0.3-0.6-1.4-0.1-2.1-0.2l0.3-0.3c1.8,0.2,3.6,0.4,5.4,0.8c0,0,0,0,0,0.1c-0.3-0.1-0.6-0.2-0.8,0
	c-0.3-0.2-0.7-0.3-1.1-0.1c-0.1-0.1,0-0.2,0.1-0.2c-0.4,0.1-0.8,0.3-0.6,0.7c0.4-0.3,0.4-0.1,0.8-0.4c0.3,0,0.5,0.2,0.4,0.3
	s0.2,0,0.3,0c-0.1,0.2-0.2,0.3-0.2,0.5l0.3,0.8l-0.2,0.3v-0.7c-0.2,0.4,0,0.6,0.1,0.9c-0.1,0.1-0.2,0.2-0.2,0.3l0.5,0.8
	c-0.2,0.1-0.4-0.3-0.5,0.2c0.2,0.4,0.4-0.4,0.6,0.2c-0.2,0.4-0.4,0.3-0.2,0.7c-0.1,0.1-0.2,0-0.2-0.2c0.1,0.4,0.1,1,0.3,1.2
	c-0.2,0.4,0.1,1.3-0.4,1.3c0.2,0.3,0.3,0.7,0.4,1.1c-0.5-0.7,0,1.4-0.6,1.2c0.5,0.5,0.2,1.8,0.5,2.6c0,0-0.1-0.1-0.1-0.2
	c0,0.3-0.1,0.6-0.3,0.9c0.4,0.1,0.5,0.8,0.7,1.2c-0.4,0.6-0.5-0.4-0.8-0.2c0.3,0,0.3,1,0.6,0.8c-0.2,0.5-0.1,0.4-0.4,0.6
	c0.5,0.1,0.1,0.4,0.4,0.8c-0.2,0.7-0.5,0.2-0.3,0.9c-0.1,0.4-0.3-0.3-0.3-0.3c0,0.7,0.4,0.4,0.6,0.5c0.1,0.9-0.3,0.4-0.5,0.7
	c0.1,0.6,0.4,1,0.4,1.4c-0.1,0-0.1,0.1-0.2,0c0.3,0.6,0,1.7,0.3,2.4c0,0-0.1,0.1-0.1,0.1c0.2-0.1,0.3-0.1,0.5-0.1
	c0,0.3,0.2,0.6,0,0.8c0-0.2-0.1-0.2-0.2-0.3l0.1,0.4c-0.4,0.3-0.1-0.5-0.4-0.5c0.2,0.7,0.3,1.3,0.2,2c-0.3,0.1-0.1-1.2-0.4-0.5
	l0.1-0.8c-0.6,0.6,0.1-0.5-0.5,0.1c-0.1,1.1,0.1,1.2,0,2.2c0.2,0.2,0.3-0.1,0.5,0.2c0.3,1.5-0.9,1.1-0.5,2.3
	c0.2,0.3,0.6,0.4,0.4,1.2l-0.4-0.3c-0.1,1,0.5,0.6,0.2,1.7c-0.1-0.2-0.1-0.8-0.1-0.7c-0.3,0.7,0.2,0.5,0.2,1l-0.3,0.1
	c0,1.1,0.2,2.3,0.1,3.5c-0.1-0.1-0.2-0.3-0.3,0c0,1.6-0.2,3.2-0.6,4.7l0.2,0.6c0,0.1-0.1,0.2-0.2,0.1c-0.2,0.6,0.2,0,0.3,0.3
	s-0.2,0.4-0.3,0.2c0.2,1.3,0.2,2.7-0.2,4l-0.1-0.2c-0.2,0.8,0.5,1,0.1,1.7v-0.1c-0.3,1.8-0.3,3.8-1,5.1c0.4,0.3-0.5,1.7,0.1,1.9
	c-0.4,0.6-0.7,1.3-0.9,2.1c-0.1,0.4,0.3,0.6,0.2,1.1h-0.3l0.2,0.7l-0.4,0.3v0.6c0-0.2,0.2-0.4,0.3-0.3c0,0.6-0.3,1.2-0.7,1.6
	l-0.1,1.7c-0.1-0.1-0.1-0.3-0.1-0.6c0.1,0.9-0.4,0.1-0.2,0.9c0.1-0.1,0.2,0.1,0.2,0.1c-0.3,0.6-0.5,1.3-0.6,1.9l-0.2-0.2
	c-0.3,1.2-0.5,2.5-0.9,3.9c0.2-0.4,0.6-0.2,0.5,0.1l-0.4,0.1c0.1,0.3,0.2-0.4,0.3,0.2c-0.2,0.5-0.4,0.2-0.5-0.1c0,0.2,0,0.4-0.1,0.6
	c-0.1,0-0.1-0.1-0.2-0.2c0.1,0.3-0.6,0.9-0.4,1.4h-0.1c-0.4,1.3-0.5,1.9-0.8,3c0.3,0.1,0.1,0.5,0.2,0.9c-0.4,0.8-0.8,1.6-1.2,2.4
	c-0.1,0.7,0.1,0.3,0.2,0.6c-0.2,0-0.6,0.9-0.6,0.3c-0.4,0.9-0.7,1.9-1,2.9c0.2-0.1,0.3-0.2,0.3-0.1s-0.4,0.5-0.5,0.4v-0.1
	c-0.1,0.4-0.3,0.8-0.5,1.2c-0.1,0.2-0.3,0.4-0.4,0.6c-0.1,0.1-0.1,0.1-0.2,0.1c-0.1,0.1-0.2,0-0.2,0.1s0,0-0.1,0.1v0.1v0.1
	c-0.1,0.1-0.2,0.1-0.3,0c-0.1-0.1,0-0.1,0-0.2c0.1-0.1,0.1-0.1,0.1-0.2c-0.1,0-0.2,0-0.2-0.1c-0.1-0.1-0.1-0.2-0.1-0.3l-0.2-0.4
	c-0.2-0.5-0.5-1-0.8-1.5c0.3-1.2-1.4-3.1-1.4-4.5l-0.1,0.1c-0.3-0.2,0-0.4-0.1-0.6c-0.1,0.1,0,0.4-0.2,0.2c-1.2-2.6-1.6-5.6-2.2-8.4
	c-0.2-1-1-0.4-1-1.8l0.4,0.3c-0.4-1-0.7-2.1-0.9-3.1c-0.2-1.1-0.4-2.1-0.8-3.1c0.1,0.1,0.2,0.1,0.2,0.3c0.1-0.5-0.3-1.6-0.5-1.6
	c0-0.3,0.2-0.1,0.2-0.3c0.1-0.5-0.5-1.1-0.3-1.3c0,0,0.1,0.1,0.1,0.2c-0.2-0.3-0.2-1.3-0.4-1c0-0.8-0.4-1.5-0.3-2.1
	c-0.4-0.4-0.1-1.4-0.5-1.4c0.5,0,0.2-1.4-0.1-1.9c0.2,0.1,0.1-0.4,0.3-0.3c-0.1-0.6-0.2-1.1-0.4-0.9c0.4-1.1-0.7-2.1-0.1-2.7
	c-0.4-1.7-0.8-3.2-1-4.7c0.4,0,0.2,1.7,0.7,1.6c-0.4-1.2-0.7-2.4-0.8-3.7c0-0.4,0.2,0.2,0.3,0.3c-0.3-1.4-0.2-2.8-0.5-4.1
	c0,0,0.1,0.1,0.1,0.3c0-0.2,0-0.6-0.2-0.6l0.1,0.2c-0.3,0.4-0.7-1-0.8-1c0.6,0.4,0.1-1.3,0.9-0.6c0-0.2-0.2-0.4-0.3-0.3
	c0-0.2,0.1-0.3,0.3-0.1c-0.2-0.9-0.4-0.6-0.4-1.4c0.1,0,0.1,0.2,0.3,0.2c-0.3-0.5-0.4-1-0.4-1.5c0.1,0,0.1,0,0.1,0.2
	c-0.1-1.2-0.6-2-0.5-3.4c0.4,0.4,0.1-0.4,0.5-0.5l-0.1-0.7l-0.2,0.3c-0.1-0.6-0.2-1.1-0.2-1.7l0.2,0.5l-0.1-1.2l-0.1,0.7
	c-0.2-0.6-0.5,0.1-0.4-0.8c0,0.2,0-0.6,0.2-0.9l0,0c-0.2-0.3-0.2-0.7-0.2-1.1c0.1-0.1,0.4,0.1,0.5,0c-0.3-0.3-0.1-1.4-0.4-1.8
	c0.1,0.1,0.2,0.1,0.3,0.1l-0.3-0.2c0.1-0.3,0.1-0.3,0.3-0.3c0-0.9-0.5,0.3-0.3-0.8c0,0.1,0.1,0,0.1,0.2c0.1-1-0.2-2,0-2.9
	c0.4-0.3,0.1,0.8,0.4,0.5c-0.2-1.4-0.3-2.8-0.3-4.1v0.2c-0.5-0.2,0.3-1,0-1.6c0,0.2,0.3,0.2,0.2,0.2c0-1.1-0.1-2.2-0.2-3.2l0.1,0.2
	c0.1-0.5,0.1-1.4,0.2-2c-0.1-0.2-0.1-0.5-0.3-0.3c0.2-0.6,0.4-1.2,0.3-1.8V171l-0.1-0.3c0-0.2-0.1-0.4-0.1-0.6
	c0.4-0.1,0.8-0.1,1.1,0c-0.1,0-0.2,0.2-0.1,0.1l0.2-0.1l0.3-0.1l0.6-0.2c-0.1-0.2-0.2-0.1-0.5-0.2c0.2-0.2,0.5-0.3,0.8-0.4
	c-0.6,0.2,0.1,0.4,0.3,0.5c-0.1-0.1,0-0.1,0-0.2c0.8,0.3,0-0.5,1-0.3v0.1c0.3-0.2,0.7-0.3,1-0.3c0.2,0.2-0.4,0.2-0.4,0.4
	c0.5-0.1,1-0.6,1.5-0.4c-0.2,0.1-0.6,0.1-0.8,0.2c0.3,0.2,0.7,0.2,1,0.2l0,0l0.9,0.1l-0.2-0.1c0.6-0.8,1.4-0.2,2.2-0.7
	c-0.9,0.5-0.1,0.3-0.2,0.6c0.2,0.1,0.6,0.1,0.5,0.2c0.4-0.3,0.7,0.2,1.3-0.2c0,0.1,0.5,0,0.4,0.2c0.6-0.1-0.1-0.2-0.1-0.3
	c0.9-0.4,2,0.4,3.2,0c0.8-0.2,1.1-0.5,1.9-0.6L240.2,168.5z M223.5,169.7c0.1,0.2,0.2,0.4,0.2,0.6c-0.1,0-0.2-0.1-0.2-0.1
	c-0.1-0.1-0.1-0.3-0.1-0.4L223.5,169.7z M246.6,204.1c-0.1-0.1-0.1,0.3-0.2,0.5c0-0.2,0-0.4,0.1-0.6c0,0,0.1,0.1,0.1,0.2
	L246.6,204.1z M246.5,203.1L246.5,203.1z M237.7,168.6l-0.2-0.2h0.6c-0.1,0.2-0.3,0.3-0.5,0.3L237.7,168.6z M209.5,174.2h0.1v0.1
	L209.5,174.2z M208.4,174.9c-0.1,0.1-0.3,0.2-0.4,0.3c-0.1,0-0.1-0.1-0.1-0.2c-0.2,0.3-0.4,0.7-0.1,0.9c0.1-0.4,0.3-0.3,0.4-0.8
	C208.3,175,208.4,175,208.4,174.9l0.3,0.8l-0.2,0.2v-0.6c-0.2,0.4,0,0.6,0.1,0.9c-0.1,0.1-0.2,0.2-0.2,0.3l0.4,0.8
	c-0.2,0.1-0.4-0.3-0.5,0.2c0.2,0.4,0.4-0.3,0.5,0.2c-0.2,0.4-0.4,0.3-0.2,0.7c-0.1,0.1-0.2,0-0.2-0.2c0.1,0.4,0,1,0.3,1.2
	c-0.3,0.4,0.1,1.3-0.4,1.3c0.2,0.3,0.3,0.6,0.3,1c-0.5-0.7-0.1,1.3-0.6,1.1c0.5,0.5,0.2,1.7,0.4,2.6c0,0-0.1-0.1-0.1-0.2
	c-0.1,0.3-0.2,0.6-0.3,0.9c0.4,0.1,0.4,0.8,0.7,1.2c-0.4,0.6-0.4-0.4-0.8-0.2c0.3,0,0.3,1,0.5,0.9c-0.2,0.4-0.1,0.4-0.5,0.6
	c0.5,0.1,0.1,0.4,0.3,0.8c-0.3,0.6-0.5,0.1-0.4,0.9c-0.2,0.3-0.3-0.3-0.3-0.3c-0.1,0.7,0.3,0.4,0.5,0.5c0,0.9-0.3,0.4-0.5,0.7
	c0.1,0.5,0.4,1,0.3,1.4c-0.1,0-0.1,0.1-0.2,0c0.3,0.6-0.1,1.7,0.2,2.4c0,0-0.1,0.1-0.1,0.1c0.2-0.1,0.3-0.1,0.5-0.1
	c0,0.3,0.2,0.6-0.1,0.7c0-0.2-0.1-0.2-0.1-0.3l0.1,0.4c-0.4,0.3-0.1-0.5-0.3-0.5c0.1,0.7,0.2,1.3,0.1,2c-0.3,0.1,0-1.2-0.4-0.6
	l0.2-0.8c-0.6,0.6,0.1-0.5-0.5,0c-0.2,1,0.1,1.2-0.1,2.2c0.2,0.2,0.3,0,0.4,0.2c0.2,1.5-1,1.1-0.6,2.2c0.2,0.3,0.6,0.5,0.3,1.2
	l-0.3-0.3c-0.2,1,0.5,0.6,0.1,1.6c-0.1-0.2,0-0.8-0.1-0.6c-0.4,0.6,0.1,0.5,0.1,1l-0.4,0.1c-0.1,1.1,0,2.3-0.2,3.4
	c-0.1-0.1-0.2-0.3-0.3,0c-0.1,0.8-0.2,1.5-0.4,2.3c-0.2,0.8-0.5,1.5-0.7,2.2l0.2,0.6c0,0.1-0.2,0.2-0.2,0.1
	c-0.2,0.5,0.2,0.1,0.2,0.4s-0.2,0.4-0.3,0.2c0.1,1.3-0.1,2.6-0.7,3.8v-0.2c-0.3,0.8,0.4,1-0.1,1.7v-0.1c-0.6,1.6-0.9,3.6-1.8,4.7
	c0.3,0.4-0.8,1.6-0.2,1.9c-0.5,0.5-0.9,1.1-1.3,1.7c-0.2,0.3,0.1,0.6,0,1.1l-0.3-0.1l0.1,0.7l-0.5,0.1c0,0.1-0.1,0.3-0.1,0.4
	c0.1-0.1,0.3-0.3,0.4-0.2c-0.2,0.7-0.9,1.4-1.1,1.3l-0.5,1.5c-0.1-0.1,0-0.4,0-0.6c-0.1,0.9-0.4,0-0.4,0.8c0.1-0.1,0.1,0.1,0.2,0.2
	c-0.5,0.4-0.9,1-1.1,1.6l-0.1-0.2c-0.3,0.5-0.6,1-0.9,1.6s-0.7,1.1-1.1,1.7c0.4-0.3,0.6,0,0.4,0.3l-0.4-0.1c0,0.3,0.3-0.3,0.2,0.3
	c-0.3,0.4-0.5,0.1-0.4-0.2l-0.3,0.6c-0.1,0-0.1-0.2-0.1-0.3c0,0.3-0.9,0.6-0.8,1.1h-0.1c-0.8,1.1-1.1,1.6-1.8,2.5
	c0.2,0.2-0.1,0.5-0.1,0.9c-0.7,0.6-1.3,1.2-1.9,1.9c-0.3,0.6,0.1,0.3,0,0.6c-0.2-0.1-0.8,0.6-0.6,0.1c-0.6,0.8-1.2,1.6-1.8,2.4
	c0.2,0,0.3-0.1,0.3,0c-0.1,0.2-0.5,0.4-0.6,0.3V246c-0.8,1.5-3.1,2.3-3.7,3.6v-0.1l-0.8,1.2c-0.5,0.4,0.1-0.4-0.3-0.2
	c-0.8,1.3-1.7,1.6-2.4,2.6c-0.3,0-0.7,0.2-0.9,0.4l-0.2,0.2l-0.1,0.1l-0.1,0.1c0,0.1-0.1,0.1-0.2,0.2c-0.1,0,0-0.2,0-0.3l-0.1,0.2
	c-0.1,0.1,0-0.2,0.1-0.2c-0.1,0.1-0.1,0.2-0.2,0.2l-0.1-0.1v-0.1l-0.1-0.1c-0.1-0.3-0.3-0.6-0.4-1c-0.2-0.7-0.4-1.4-0.6-2
	c-0.4-1.4-0.6-2.8-0.9-4.2c-0.2-1-1.1-0.3-0.9-1.7l0.4,0.3c-0.9-1.9-0.8-4.1-1.4-6.1c0.1,0.1,0.2,0.1,0.2,0.3
	c0.2-0.4-0.2-1.6-0.4-1.6c0-0.3,0.2-0.1,0.2-0.3c0.1-0.4-0.4-1-0.2-1.3c0,0,0.1,0.1,0.1,0.2c-0.1-0.3-0.1-1.3-0.3-1
	c0.1-0.8-0.2-1.4-0.1-2.1c-0.3-0.4,0.1-1.3-0.3-1.4c0.4,0,0.4-1.3,0.2-1.8c0.1,0.2,0.2-0.4,0.3-0.2c0-0.6-0.1-1.1-0.3-1
	c0.6-1-0.4-2.1,0.4-2.6c-0.1-1.5-0.1-3.1,0.1-4.6c0.2,0.1,0.1,0.5,0.1,0.9s-0.1,0.8,0.2,0.8c-0.1-1.2-0.1-2.4,0.1-3.6
	c0.1-0.3,0.1,0.2,0.2,0.4c0-0.7,0.1-1.3,0.3-2c0.2-0.6,0.3-1.2,0.4-1.9c0,0,0.1,0.2,0.1,0.3c0-0.2,0.2-0.5,0-0.6v0.2
	c-0.4,0.3-0.4-1.1-0.5-1.2c0.5,0.6,0.5-1.2,1-0.3c0-0.2,0-0.4-0.2-0.4c0.1-0.2,0.2-0.3,0.3,0c0.1-0.9-0.1-0.6,0.1-1.4
	c0.1,0,0.1,0.2,0.2,0.3c-0.1-0.5,0-1,0.2-1.5c0,0.1,0.1,0,0.1,0.2c0.1-0.5,0.2-1,0.3-1.6c0-0.6,0.2-1.1,0.5-1.6
	c0.3,0.5,0.3-0.4,0.7-0.3l0.2-0.7l-0.3,0.2c0.2-0.6,0.2-1.1,0.5-1.6v0.5l0.4-1.1l-0.4,0.5c0.1-0.6-0.5-0.1-0.1-0.8
	c0,0.2,0.3-0.6,0.6-0.7l0,0c0-0.4,0.1-0.7,0.3-1c0.2-0.1,0.3,0.3,0.4,0.2c-0.1-0.4,0.6-1.3,0.4-1.8c0,0.1,0.2,0.2,0.2,0.2l-0.1-0.3
	c0.2-0.2,0.2-0.2,0.4-0.1c0.4-0.7-0.6,0,0.1-0.8c0,0.1,0,0.1,0,0.2c0.6-0.8,0.9-1.7,1.4-2.5c0.5,0-0.3,0.7,0.1,0.6
	c0.3-0.6,0.6-1.2,0.8-1.9c0.3-0.6,0.6-1.2,1-1.7l-0.2,0.2c-0.3-0.4,0.8-0.6,0.9-1.3c-0.1,0.1,0.1,0.3,0.1,0.3
	c0.6-0.9,1.1-1.7,1.6-2.7v0.2c0.4-0.3,0.9-1,1.3-1.4c0-0.2,0.2-0.4-0.1-0.4c1.7-0.8,1.9-2.7,3.4-3.4c-0.1,0.1-0.2,0.4-0.1,0.3
	c0.3-0.4,0.6-0.7,0.9-1c-0.2-0.1-0.2,0-0.6,0.1c0.1-0.3,0.2-0.6,0.5-0.8c-0.3,0.5,0.3,0.3,0.5,0.2c-0.1,0-0.1-0.1-0.1-0.2
	c0.8-0.2-0.2-0.4,0.6-0.9v0.1c0.2-0.3,0.4-0.6,0.6-0.9c0.3,0.1-0.2,0.4-0.1,0.5c0.4-0.4,0.4-1.1,1-1.2c-0.1,0.2-0.4,0.4-0.5,0.6
	c0.3,0,0.7-0.2,0.9-0.4l0,0l0.8-0.4l-0.2,0.1c0.1-1,1-0.9,1.4-1.9c-0.4,0.9,0,0.3,0.2,0.6c0.2-0.1,0.6-0.2,0.5-0.1
	c0.2-0.5,0.7-0.3,0.9-0.9c0.1,0.1,0.4-0.2,0.4,0c0.4-0.4-0.2-0.1-0.2-0.2c0.5-0.8,1.8-0.8,2.6-1.9c0.8-0.7,0.8-1.1,1.5-1.7l0,0
	c0.3,0-0.1,0.4-0.1,0.4c0.5-0.1,0.9-0.4,1.2-0.7c0,0.1,0.1,0.1,0.3,0.1c0.3-0.2,0.1-0.4,0.6-0.6c0,0.2-0.1,0.4-0.1,0.6
	c0.3-0.4,0.7-0.7,1.1-1c0.2,0.1-0.1,0.4-0.2,0.5c0.4-0.3,1.2-0.8,1.2-1.1l-0.4,0.1c0.2-0.1,0.2,0.2,0.1,0.3
	c-0.3,0.4-0.6,0.2-0.7,0.1l0.3-0.2c-0.3-0.2-0.6,0-0.9,0.3c-0.3,0.3-0.6,0.6-0.9,0.8v-0.4c1.2-0.7,2.4-1.3,3.7-1.9
	c-0.1,0.1-0.1,0.2-0.1,0.3L208.4,174.9z M190.4,187.9c0.1,0.1,0.1,0.2-0.1,0.5c-0.1,0-0.2-0.1-0.2-0.2L190.4,187.9z M204.4,177.2
	c-0.1,0-0.2-0.1-0.2-0.2l0.6-0.4L204.4,177.2z M201.4,178.7c0,0.2-0.1,0.3-0.2,0.4l-0.3-0.1L201.4,178.7z M185.4,268.6
	c0.1,0.1,0.1,0.2,0.2,0.4L185.4,268.6L185.4,268.6z M298.8,231.4c-0.2,0-0.3-0.1-0.5-0.1c0-0.1,0-0.1,0-0.2l-0.3-0.2l0.1,0.4l0,0
	c-0.2,0.1-0.4,0.3-0.5,0.8l0.3,0.8l-0.2,0.2v-0.6c-0.2,0.4,0,0.6,0.1,0.9c-0.1,0.1-0.2,0.2-0.3,0.3l0.4,0.8
	c-0.2,0.1-0.4-0.4-0.5,0.1c0.2,0.4,0.4-0.3,0.5,0.3c-0.2,0.4-0.4,0.2-0.2,0.7c-0.1,0.1-0.2,0-0.2-0.2c0.1,0.4,0,1,0.2,1.2
	c-0.3,0.4,0,1.3-0.5,1.2c0.2,0.3,0.2,0.7,0.2,1.1c-0.4-0.7-0.2,1.3-0.7,1.1c0.4,0.5,0,1.7,0.1,2.6c0-0.1-0.1-0.2,0-0.2
	c-0.1,0.3-0.2,0.6-0.4,0.9c0.4,0.1,0.3,0.9,0.5,1.3c-0.5,0.5-0.4-0.4-0.8-0.3c0.3,0,0.1,1.1,0.4,0.9c-0.3,0.4-0.2,0.4-0.6,0.5
	c0.5,0.2,0,0.4,0.2,0.9c-0.4,0.6-0.5,0-0.5,0.8c-0.2,0.3-0.2-0.4-0.2-0.4c-0.2,0.7,0.3,0.4,0.4,0.6c-0.1,0.9-0.4,0.3-0.6,0.6
	c0,0.5,0.2,1,0,1.4c-0.1,0-0.1,0.1-0.2,0c0.1,0.6-0.5,1.6-0.4,2.4c0,0-0.1,0-0.1,0.1c0.2,0,0.4,0,0.5,0.1c-0.1,0.3,0,0.6-0.2,0.7
	c0.1-0.2,0-0.2,0-0.4v0.4c-0.4,0.2,0-0.5-0.2-0.6c0,0.6-0.2,1.3-0.4,1.9c-0.4,0,0.3-1.2-0.2-0.6l0.4-0.7c-0.7,0.4,0.2-0.4-0.5-0.1
	c-0.2,0.3-0.3,0.7-0.4,1c0,0.1-0.1,0.3-0.1,0.4s-0.1,0.2-0.1,0.3c0,0,0,0.1,0,0.1c0.1,0.2,0.2,0.1,0.4,0.3c0,0.5-0.2,0.5-0.4,0.2
	s-0.2-0.4-0.2-0.2s-0.1,0.8-0.4,0.2c0.1-0.1,0.2-0.2,0.2-0.3c-0.1-0.1-0.2,0-0.3,0s-0.4-0.1-0.6-0.5c0.2,0,0.7,0.4,0.6,0.3
	c-0.3-0.7-0.5-0.2-0.9-0.5l0.1-0.3c-0.8-0.7-1.9-1.3-2.8-2.1c0.1,0,0.3,0,0.2-0.2c-1.2-1-2.3-2.2-3.1-3.5l-0.6-0.2
	c-0.1-0.1-0.1-0.3,0.1-0.2c-0.3-0.5-0.2,0.1-0.4,0s-0.2-0.4,0-0.3c-1.1-0.7-2.1-1.6-2.8-2.7l0.2,0.1c-0.5-0.7-1.1-0.3-1.4-1.1
	l0.1,0.1c-1.1-1.4-2.5-2.8-3-4.1c-0.5,0.1-0.9-1.5-1.5-1.2c-0.2-0.7-0.4-1.4-0.8-2.1c-0.2-0.3-0.6-0.2-1-0.6l0.2-0.2l-0.6-0.3
	l0.1-0.5l-0.3-0.3c0.1,0.2,0.1,0.4,0,0.4c-0.4-0.4-0.6-1-0.6-1.6l-1.1-1.2c0.1,0,0.3,0.2,0.5,0.3c-0.7-0.6,0.2-0.3-0.5-0.8
	c0,0.1-0.2,0-0.2,0.1c-0.1-0.6-0.4-1.3-0.8-1.8h0.2c-0.2-0.5-0.6-1.1-0.9-1.7s-0.6-1.2-0.8-1.8c0.1,0.5-0.3,0.5-0.5,0.2l0.2-0.3
	c-0.3-0.2,0,0.4-0.4,0c-0.2-0.5,0.2-0.4,0.4-0.2l-0.3-0.5c0.1-0.1,0.2,0,0.3,0c-0.3-0.2-0.1-1.1-0.5-1.3l0.1-0.1
	c-0.4-1.3-0.8-1.8-1.1-2.8c-0.3,0.1-0.3-0.4-0.6-0.6c-0.1-0.9-0.3-1.8-0.5-2.7c-0.3-0.6-0.3-0.1-0.5-0.4c0.2-0.1,0-1.1,0.3-0.6
	c-0.3-1-0.6-1.9-1-2.8c-0.1,0.2-0.1,0.4-0.2,0.3c-0.1-0.2,0-0.6,0.1-0.6v0.1c-0.7-1.6-0.1-3.9-0.8-5.1v0.1l-0.5-1.3
	c-0.1-0.6,0.2,0.3,0.3-0.1c-0.7-1.4-0.3-2.3-0.8-3.5c0.6-1-0.5-3.3-0.2-4.7l-0.2,0.1c-0.2-0.3,0.1-0.4,0.1-0.7
	c-0.1,0-0.1,0.4-0.2,0.2c-0.5-2.8-0.3-5.8-0.3-8.7c0-1.1-1-0.5-0.6-1.9l0.4,0.4c-0.5-2.1-0.2-4.4-0.6-6.4c0.1,0.1,0.2,0.1,0.2,0.3
	c0.2-0.4,0-1.6-0.2-1.6c0-0.3,0.2-0.1,0.3-0.3c0.1-0.4-0.3-1.1-0.1-1.4c0,0,0.1,0.1,0.1,0.2c-0.1-0.3,0-1.3-0.3-1.1
	c0.1-0.9-0.1-1.1,0-1.4c-0.1-0.1-0.1-0.3-0.1-0.5c0-0.1,0-0.2-0.2-0.6c0.2,0.3,0.3,0.3,0.3,0.2c0.1,0.1,0.2,0,0.2-0.1
	c0,0.1,0.1,0.2,0.1,0.4c0,0,0.1,0,0.2-0.2c0.6,0.9,2.1,0.5,2.2,1.4c0.8,0.3,1.5,0.6,2.2,0.9c0.7,0.3,1.4,0.6,2,1
	c-0.1,0.2-0.5-0.1-0.8-0.3s-0.7-0.4-0.8-0.1c1.2,0.4,2.3,0.9,3.3,1.6c0.3,0.3-0.3,0-0.4,0c0.6,0.3,1.2,0.7,1.7,1.1
	c0.5,0.4,1,0.8,1.6,1.1c0,0-0.2,0-0.3-0.1c0.2,0.1,0.4,0.4,0.5,0.2l-0.2-0.1c-0.1-0.5,1.2,0.1,1.3,0c-0.7,0.2,0.9,0.9-0.1,1
	c0.1,0.1,0.4,0.1,0.4,0c0.2,0.2,0.2,0.3-0.1,0.3c0.8,0.5,0.6,0.1,1.2,0.7c-0.1,0.1-0.2,0-0.4,0c0.5,0.1,1,0.4,1.3,0.8
	c-0.1,0-0.1,0.1-0.2,0c0.9,0.8,1.9,1,2.6,2.1c-0.6,0,0.2,0.4,0,0.7l0.5,0.4l-0.1-0.3c0.4,0.4,1,0.6,1.2,1.1l-0.4-0.2l0.8,0.8
	l-0.3-0.6c0.6,0.3,0.3-0.4,0.8,0.3c-0.1-0.1,0.4,0.5,0.4,0.9l0,0c0.3,0.2,0.6,0.4,0.8,0.7c0,0.2-0.4,0.2-0.4,0.3c0.4,0,1,1,1.5,1.1
	c-0.1,0-0.2,0-0.3,0.1h0.4c0.1,0.3,0.1,0.3,0,0.4c0.5,0.7,0.2-0.5,0.6,0.4c-0.1-0.1-0.1,0-0.2-0.1c0.5,0.9,1.3,1.5,1.7,2.3
	c-0.1,0.4-0.5-0.6-0.6-0.2c0.4,0.5,0.9,1,1.4,1.6c0.4,0.5,0.8,1.1,1.1,1.7l-0.1-0.2c0.5-0.1,0.3,1,0.8,1.4c-0.1-0.1-0.4,0-0.3,0
	c0.5,0.9,1.1,1.8,1.8,2.6l-0.2-0.1c0.1,0.5,0.6,1.3,0.8,1.8c0.2,0.1,0.3,0.4,0.4,0.1c0,1.9,1.7,2.9,1.7,4.6
	c-0.1-0.2-0.2-0.4-0.2-0.2l0.5,1.2c0.2-0.2,0.1-0.2,0.1-0.5c0.2,0.2,0.4,0.4,0.5,0.7c-0.3-0.5-0.4,0.1-0.4,0.4c0-0.1,0.2,0,0.2-0.1
	c-0.2,0.8,0.5,0,0.5,0.9h-0.1c0.2,0.3,0.4,0.6,0.5,0.9c-0.2,0.2-0.2-0.3-0.5-0.3c0.2,0.5,0.8,0.9,0.7,1.4c-0.1-0.2-0.2-0.5-0.3-0.7
	c-0.1,0.3-0.1,0.7,0,1l0,0l0.1,0.9v-0.2c0.8,0.5,0.5,1.3,1.1,2c-0.6-0.8-0.3-0.1-0.6-0.1c0,0.2,0,0.6-0.1,0.5c0.4,0.4,0,0.7,0.4,1.2
	c-0.1,0,0.1,0.4-0.2,0.4c0.2,0.5,0.1-0.2,0.3-0.1c0.5,0.8,0,2,0.6,3.2c0.3,1,0.6,1.2,0.9,2.1l0,0c-0.1,0.3-0.4-0.2-0.4-0.2
	c-0.1,0.5,0,1,0.2,1.4c-0.1-0.1-0.2,0-0.2,0.2c0.1,0.4,0.4,0.2,0.3,0.8c-0.2-0.1-0.3-0.2-0.4-0.4c0.2,0.5,0.3,0.9,0.5,1.4
	c-0.2,0.1-0.3-0.3-0.4-0.4c0.1,0.6,0.2,1.4,0.5,1.6l0.1-0.4c0,0.2-0.2,0.1-0.3,0c-0.2-0.5,0.1-0.7,0.2-0.7l0.1,0.4
	c0.6-0.4-0.1-1.4-0.2-2.1l0.4,0.2c0.2,1.8,0.2,3.6,0.2,5.4C298.8,231.4,298.8,231.4,298.8,231.4z M289,251.9l-0.3-0.2l0,0L289,251.9
	z M287.7,250.6c0.1,0.1,0.3,0.3,0.4,0.4c0,0.1-0.1,0.1-0.2,0C288,251.1,287.8,250.9,287.7,250.6L287.7,250.6z M298.6,225.9l-0.4-0.6
	c0.1-0.1,0.2-0.2,0.3-0.1C298.5,225.4,298.5,225.6,298.6,225.9L298.6,225.9z M298.1,221.9c-0.1,0-0.2-0.1-0.3-0.3l0.2-0.2
	C298,221.5,298,221.7,298.1,221.9L298.1,221.9z M294.2,207.9c-0.1,0-0.2-0.1-0.4-0.3c0.1-0.1,0.2-0.1,0.2-0.1L294.2,207.9z
	 M229.9,282.1c-0.1,0.1-0.1,0.1-0.2,0.2c-0.1,0-0.1-0.1-0.1-0.2S229.8,282.1,229.9,282.1L229.9,282.1z M229.4,282.5l-0.1,0.1
	L229.4,282.5z M219.5,291.7h-0.1v-0.3l0,0c0,0.1,0.1,0.1,0.1,0.2C219.5,291.7,219.5,291.7,219.5,291.7L219.5,291.7z M219.5,291.7
	L219.5,291.7L219.5,291.7C219.5,291.7,219.6,291.7,219.5,291.7L219.5,291.7z M219.4,291.4L219.4,291.4L219.4,291.4z M218.9,291.9
	l0.2,0.1L218.9,291.9L218.9,291.9z M219.1,291.9c0.1,0.1,0.2,0.1,0.3,0.1l0,0c0.1,0.3,0.6-0.1,0.9,0l-0.2,0.3l-1-0.3
	C219.1,292,219.1,291.9,219.1,291.9L219.1,291.9z M220.8,292.4c0-0.2,0.2-0.3,0.2-0.3c-0.2-0.2-0.4-0.2-0.6-0.2c0.1-0.1,0-0.1,0-0.3
	s-0.2,0.3-0.4,0.1c0.1-0.1,0.2-0.2,0.3-0.3c-0.2,0-0.4,0.1-0.5,0.1c0,0,0-0.1-0.1-0.1c0.1,0,0.2-0.1,0.2-0.1h-0.4c0-0.1,0-0.1,0-0.2
	c0.3,0.1,0.3,0.2,0.4,0c0.1,0.1,0.1,0.2,0.1,0.2c0-0.2,0.3-0.3,0.2-0.6c0.3,0.1,0.4-0.4,0.7-0.1c0-0.2,0-0.4,0.1-0.6
	c0.1,0.6,0.5-0.4,0.8,0.1c-0.1-0.5,0.5-0.7,0.6-1.1v0.1c0.2-0.1,0.3,0,0.5-0.1c-0.2-0.3,0-0.6,0-0.9c0.4,0.1,0.2,0.5,0.5,0.7
	c-0.2-0.2,0.1-0.5-0.1-0.7c0.3,0,0.2,0,0.5,0.1c-0.3-0.4,0.1-0.2,0-0.5c0.4,0,0.4,0.3,0.5,0c0.2,0,0.1,0.3,0.1,0.3
	c0.3-0.2-0.1-0.4-0.2-0.6c0.2-0.3,0.3,0.1,0.5,0.1c0.1-0.2,0-0.6,0.2-0.7s0.1,0,0.1,0.1c0-0.4,0.6-0.5,0.6-1h0.1
	c-0.1-0.1-0.3-0.2-0.4-0.4c0.1-0.1,0-0.4,0.2-0.2c-0.1,0,0,0.1,0,0.2v-0.2c0.3,0.2-0.1,0.2,0.1,0.4c0.1-0.3,0.2-0.7,0.4-0.8
	c0.3,0.2-0.3,0.4,0.1,0.5l-0.4,0.1c0.6,0.2-0.2,0.1,0.4,0.4c0.4-0.2,0.3-0.5,0.7-0.7c0-0.2-0.2-0.2-0.3-0.4c0.3-0.7,1,0.3,1-0.4
	c-0.1-0.2-0.3-0.6,0.1-0.7l0.2,0.4c0.4-0.3-0.2-0.6,0.3-0.7c0,0.2-0.2,0.3-0.1,0.3c0.4,0,0-0.3,0.2-0.5l0.3,0.2
	c0.3-0.4,0.5-0.9,0.9-1.3c0,0.1,0.1,0.2,0.2,0.2c0.4-0.6,1-1,1.7-1.3v-0.4c0,0,0.2,0,0.2,0.1c0.3-0.1-0.1-0.1-0.1-0.3s0.2,0,0.2,0.1
	c0.1-0.5,0.5-1.3,1.1-1.4v0.1c0.3-0.2-0.1-0.7,0.3-0.8v0.1c0.6-0.5,1.1-1.3,1.8-1.5c-0.1-0.2,0.1-0.3,0.2-0.4s0.1-0.1,0-0.3
	c0.3,0.1,0.3,0.2,0.4,0.4c0-0.1,0-0.2,0-0.3c0-0.1,0-0.4,0.1-0.4v0.4c0-0.1,0.1-0.3,0.1-0.4c0,0.2,0,0.4,0,0.5l0.1-0.1
	c0-0.1,0-0.2,0-0.3c0.1,0,0.1,0.5,0,0.6h0.1c0.1,0,0.2,0.1,0.3,0.1c-0.1,0.1-0.2,0-0.3,0c0.5,0.1-0.2,0.3,0.3,0.3
	c0-0.1,0.1-0.1,0.2-0.1c0,0.3,0.3,0.6,0.5,0.7l-0.2,0.1c0.3,0.4,0.9,0.8,1.3,1.2c-0.1-0.2,0.2-0.5,0.4-0.3l-0.2,0.3
	c0.2-0.1,0-0.2,0.3-0.2c0.1,0.2-0.2,0.4-0.3,0.4l0.3,0.1c-0.1,0.1-0.1,0.1-0.2,0.1c0.2-0.1,0.1,0.6,0.5,0.4l-0.1,0.1
	c0.4,0.4,0.7,0.5,1.1,0.9c0.2-0.2,0.3,0,0.6-0.1c0.2,0.4,0.4,0.7,0.7,1c0.3,0.1,0.2-0.1,0.4-0.1c-0.2,0.2,0.2,0.5-0.1,0.5
	c0.3,0.3,0.7,0.6,1.1,0.7c0-0.1,0-0.2,0.1-0.2c0.1,0.1,0.1,0.2,0,0.3c0,0,0,0,0,0l0,0c0.8,0.2,0.8,1.7,1.6,1.7l0,0l0.6,0.2
	c0.2,0.2-0.3,0-0.2,0.3c0.8,0.1,0.8,0.8,1.4,0.9c-0.2,0.9,1.2,1,1.3,1.7l0.1-0.2c0.2,0,0.1,0.2,0.1,0.3c0.1-0.1,0-0.2,0.1-0.2
	c0.5,0.4,1,0.8,1.4,1.3l0.6,0.8l0.3,0.4l0.2,0.2l0,0c0,0,0.8-0.5,0.6-0.2L250,291c0.1,0,0.3,0,0.4,0.1c0.1,0.1,0.1,0.1,0.2,0.2
	c0,0,0.1,0.1,0.1,0.1c-0.1,0-0.3-0.1-0.3-0.1c-0.5-0.1-0.1,0,0.1,0.2c-0.2,0-0.3-0.1-0.4-0.2c-0.2-0.1,0.3,0.2,0,0.1l-0.1-0.1
	c0.1,0.1-0.1,0,0.2,0.2c-0.2-0.1-0.1,0.2-0.3,0c0.1,0.1-0.1,0.1-0.2,0.1s-0.2,0-0.2,0.2c-0.1-0.5-0.7-0.2-0.8,0
	c0-0.1-0.2-0.1-0.2-0.3c-0.2,0.1-0.4,0.2-0.4,0.4c-0.6-0.4-0.8,0.6-1.2,0c-0.6,0.3-1.3,0.6-2,0.8c0-0.5,0.7-0.1,0.6-0.6
	c-0.6,0.3-0.9,0.7-1.5,0.7c-0.2,0,0.1-0.2,0.1-0.3c-0.6,0.3-1.2,0.1-1.7,0.4c0,0,0.1-0.1,0.1-0.1c-0.1,0-0.3,0-0.2,0.2l0.1-0.1
	c0.2,0.3-0.4,0.7-0.4,0.8c0.1-0.6-0.6-0.1-0.3-0.9c-0.1,0.1-0.1,0.2-0.1,0.3c-0.1,0-0.1-0.1-0.1-0.3c-0.4,0.1-0.2,0.4-0.6,0.4
	c0-0.1,0.1-0.1,0.1-0.3c-0.2,0.2-0.3,0.4-0.6,0.4c0-0.1,0-0.1,0.1-0.1c-0.5,0.1-0.9,0.6-1.4,0.4c0.1-0.4-0.2-0.1-0.2-0.5l-0.3,0.1
	l0.1,0.2c-0.3,0-0.5,0.3-0.7,0.2l0.2-0.2l-0.5,0.1l0.3,0.1c-0.3,0.2,0,0.5-0.3,0.4c0.1,0-0.3,0-0.4-0.2l0,0
	c-0.1,0.1-0.3,0.2-0.5,0.2s0-0.4,0-0.5c-0.1,0.3-0.6,0.1-0.8,0.4c0-0.1,0-0.2,0-0.3l-0.1,0.2c-0.1-0.1-0.1-0.1-0.1-0.3
	c-0.4,0,0.1,0.5-0.3,0.3c0,0,0-0.1,0.1-0.1c-0.4-0.1-0.9,0.1-1.3,0c-0.1-0.4,0.4-0.1,0.2-0.4c-0.6,0.1-1.2,0.4-1.8,0.3h0.1
	c-0.1,0.5-0.4-0.3-0.7,0c0.1,0,0.1-0.3,0.1-0.2c-0.5,0-1,0-1.4,0.2l0.1-0.1c-0.2-0.1-0.6-0.1-0.8-0.2c-0.1,0.1-0.2,0.1-0.2,0.3
	c-0.7-0.8-1.5,0.3-2.1-0.5c0.1,0,0.2-0.1,0.1-0.1h-0.6c0,0.2,0.1,0.1,0.1,0.3c-0.1,0.1-0.3,0.2-0.4,0.2c0.3-0.1,0-0.4,0-0.5
	c0,0.1,0,0.1,0,0.2c-0.2-0.5-0.1,0.5-0.5,0.1v-0.1c-0.2,0-0.3,0.2-0.5,0.1c0-0.3,0.2-0.1,0.2-0.3c-0.2,0-0.5,0.4-0.7,0.1
	c0.1-0.1,0.2,0,0.4-0.1c-0.2-0.4-0.2-0.3-0.4-0.4l0,0l-0.4-0.2l0.1,0.1c-0.4,0.6-0.6,0-1.1,0.4c0.5-0.4,0.1-0.2,0.2-0.5
	c-0.1-0.1-0.2-0.2-0.2-0.3c-0.2,0.2-0.3-0.2-0.6,0c0-0.1-0.2,0-0.1-0.3c-0.2,0,0,0.2,0,0.3c-0.4,0.2-0.8-0.6-1.4-0.2
	C221.4,292,221.2,292.3,220.8,292.4L220.8,292.4z M222.1,292.5v0.2l-0.2-0.1C221.9,292.6,222,292.6,222.1,292.5L222.1,292.5z
	 M273.7,281.6c0-0.1,0-0.2,0.1-0.3l0.2,0.1L273.7,281.6z M271.5,283.2l0.2-0.4c0.1,0,0.2,0.1,0.2,0.2L271.5,283.2z M214.5,157.4
	L214.5,157.4L214.5,157.4L214.5,157.4z M214.5,157.4L214.5,157.4L214.5,157.4L214.5,157.4z M165,261.9c0-0.1,0.1-0.1,0.2-0.1
	c0.1,0.3,0.3,0.6,0.4,1C165.5,262.7,165.3,262.5,165,261.9z M182.8,287.4l-0.1-0.5l0.9,0.9C183.3,287.7,183,287.5,182.8,287.4
	L182.8,287.4z M189,292.7c-0.1-0.2-0.2-0.4-0.1-0.4l1.2,0.9L189,292.7z M217.8,291.6L217.8,291.6L217.8,291.6z M268.2,285.3
	c0.2-0.1,0.3-0.3,0.4-0.5c0.3,0,0.5-0.2,0.6-0.4c0.1,0,0.1,0.1,0.1,0.2c0.1-0.2,0.2-0.6-0.1-0.8c0,0.4-0.1,0.3-0.1,0.8
	c-0.1,0.1-0.3,0.1-0.4,0c0,0,0,0,0,0.1c0-0.2-0.1-0.4-0.2-0.5l-0.6-0.1v-0.3l0.4,0.2c-0.1-0.3-0.3-0.3-0.6-0.3c0-0.1,0-0.2,0-0.3
	l-0.7,0c0-0.2,0.4-0.1,0.2-0.5c-0.3,0,0,0.5-0.5,0.3c-0.1-0.3,0.1-0.4-0.3-0.5c0-0.1,0.1-0.1,0.3-0.1c-0.3,0-0.6-0.4-0.9-0.3
	c-0.1-0.4-0.8-0.5-0.5-0.8c-0.3,0-0.6,0-0.8-0.1c0.7-0.1-0.7-0.6-0.3-1c-0.6,0.2-1.1-0.6-1.7-0.7c0,0,0.1,0,0.2,0
	c-0.2-0.2-0.2-0.4-0.4-0.6c-0.3,0.3-0.7,0-1.1,0c-0.1-0.5,0.5-0.2,0.6-0.6c-0.2,0.3-0.8-0.2-0.8,0.1c-0.1-0.4-0.1-0.3-0.1-0.6
	c-0.4,0.4-0.3-0.1-0.7,0c-0.2-0.5,0.2-0.4-0.3-0.6c-0.1-0.3,0.4-0.1,0.4-0.1c-0.4-0.3-0.4,0.1-0.6,0.2c-0.5-0.3,0-0.4-0.1-0.7
	c-0.4-0.2-0.8-0.1-1-0.3c0-0.1,0-0.1,0.1-0.1c-0.5,0-0.9-0.8-1.5-0.8c0,0,0-0.1,0-0.1c-0.1,0.2-0.2,0.3-0.3,0.4
	c-0.2-0.1-0.5-0.1-0.4-0.4c0.1,0.1,0.2,0,0.3,0l-0.2-0.1c0.1-0.4,0.3,0.1,0.5-0.1c-0.4-0.2-1-0.4-1.2-0.7c0.2-0.3,0.7,0.5,0.6-0.1
	l0.3,0.5c0-0.7,0.2,0.2,0.3-0.4c-0.5-0.5-0.7-0.4-1.2-1c-0.2,0-0.1,0.2-0.4,0.3c-1-0.5,0-1.2-0.9-1.4c-0.3,0-0.6,0.3-0.9-0.2
	l0.4-0.1c-0.5-0.5-0.7,0.1-1-0.6c0.2,0,0.5,0.3,0.4,0.2c-0.1-0.5-0.4-0.1-0.7-0.3l0.2-0.3c-0.6-0.5-1.4-0.9-2-1.4
	c0.1,0,0.3,0,0.2-0.2c-0.9-0.7-1.6-1.5-2.1-2.5l-0.5-0.1c-0.1-0.1,0-0.2,0.1-0.2c-0.2-0.4-0.1,0.1-0.4,0s-0.1-0.3,0.1-0.3
	c-0.8-0.4-1.5-1-2-1.9h0.2c-0.1-0.2-0.3-0.3-0.5-0.2c-0.1,0-0.3,0-0.3-0.2h0.1c-0.3-0.2,0-0.5,0.2-0.7c0.3-0.5,0.7-0.9,1.2-1.2
	c-0.2-0.4,0.9-1,0.4-1.4c0.6-0.5,0.6-0.2,1.3-1c0.2-0.2-0.1-0.5,0-0.9l0.3,0.1v-0.6h0.4l0.1-0.3c-0.1,0.1-0.3,0.2-0.3,0.1
	c0.1-0.5,0.8-1,0.9-0.9l0.3-1.2c0.1,0.1,0,0.3,0,0.5c0-0.7,0.4,0,0.4-0.6c-0.1,0-0.1-0.1-0.2-0.2c0.4-0.3,0.6-0.7,0.7-1.2l0.1,0.2
	c0.4-0.8,0.7-1.7,1.1-2.6c-0.2,0.3-0.5,0.1-0.4-0.2h0.3c-0.1-0.2-0.2,0.2-0.3-0.2c0.2-0.3,0.4-0.1,0.4,0.2l0.1-0.4
	c0.1,0,0.1,0.1,0.2,0.2c-0.1-0.2,0.6-0.6,0.4-1h0.1c0.4-0.9,0.4-1.4,0.7-2.1c-0.3-0.1-0.1-0.4-0.2-0.7c0.4-0.5,0.7-1.1,0.9-1.7
	c0-0.5-0.2-0.2-0.3-0.5c0.3,0.1,0.5-0.6,0.5-0.2c0.2-0.7,0.4-1.4,0.4-2.1c-0.1,0.1-0.2,0.2-0.3,0.1s0.2-0.4,0.3-0.3v0.1
	c0-1.2,1.5-2.4,1.3-3.5v-1c0.2-0.4,0.1,0.3,0.4,0c-0.2-0.9,0.2-0.4,0.1-1.1c0.2,0.3,0.2,0.4,0.2,0.4c0-0.1,0-0.2,0-0.3
	c0,0,0.1,0.1,0.1,0.5v-0.4c0-0.3,0,0.3,0,0.4c0-0.3,0-0.4,0-0.5c0.1,0,0.1,0.1,0.2,0.3c0,0.1,0.1,0.2,0.1,0.2v0.1l0.2,0.4
	c0.4,1,0.8,2,1.3,2.9c0.4,0.7,1-0.1,1.2,0.9h-0.4c1.2,1.1,1.8,2.6,2.9,3.6c-0.1,0-0.2,0-0.3-0.1c0,0.4,0.7,0.9,0.8,0.8
	c0.1,0.2-0.1,0.1-0.1,0.3c0.1,0.3,0.7,0.4,0.6,0.7c0,0-0.1,0-0.2-0.1c0.2,0.1,0.6,0.8,0.7,0.5c0.2,0.5,0.8,0.8,0.9,1.2
	c0.4,0,0.5,0.8,0.9,0.6c-0.4,0.2,0.3,1,0.7,1.1c-0.2,0,0.1,0.3-0.1,0.3c0.3,0.3,0.6,0.5,0.7,0.3c0.1,0.9,1.3,0.9,1,1.6
	c1,0.7,1.8,1.5,2.6,2.2c-0.4,0.3-0.8-0.9-1.1-0.5c0.8,0.6,1.5,0.8,2.1,1.6c0.1,0.2-0.2,0-0.4,0c0.8,0.6,1.3,1.5,2.1,2
	c0,0-0.1,0-0.2,0c0.1,0.1,0.2,0.3,0.4,0.2l-0.2-0.1c0-0.4,0.9,0.1,1.1,0c-0.6,0.2,0.5,0.7-0.4,0.9c0.1,0.1,0.3,0.1,0.4,0
	c0.1,0.1,0.1,0.2-0.2,0.2c0.5,0.4,0.5,0.1,0.9,0.5c-0.1,0.1-0.2,0-0.3,0c0.4,0,0.8,0.2,1,0.5c-0.1,0-0.1,0.1-0.2,0
	c0.6,0.6,1.4,0.6,1.9,1.4c-0.5,0.1,0.1,0.3-0.1,0.6l0.4,0.3v-0.3c0.3,0.3,0.8,0.4,1,0.7l-0.3-0.1l0.6,0.5l-0.2-0.4
	c0.5,0.2,0.3-0.4,0.6,0.1c-0.1,0,0.3,0.3,0.3,0.6l0,0c0.3,0,0.5,0.2,0.7,0.4c0,0.1-0.3,0.3-0.3,0.4c0.4-0.1,0.8,0.6,1.2,0.5
	c-0.1,0-0.2,0.1-0.3,0.2l0.3-0.1c0.1,0.2,0.1,0.2,0,0.3c0.4,0.4,0.2-0.5,0.6,0.1c-0.1,0-0.1,0-0.2,0c0.5,0.5,1.1,0.8,1.6,1.3
	c-0.1,0.4-0.5-0.3-0.5,0.1c0.2,0.1,0.4,0.3,0.6,0.4c0.2,0.1,0.3,0.1,0.5,0.2c0.2,0.1,0.3,0.2,0.5,0.3l0.1,0.1c0,0,0,0.1,0,0.1
	c0,0.1-0.1,0.1-0.2,0.2l0.1-0.1c0.3,0,0.1,0.2-0.1,0.3s-0.4,0.2-0.4,0.4c0-0.1-0.2-0.2-0.1-0.2l-0.1,0.1l-0.1,0.2
	c-0.1,0.1-0.2,0.3-0.3,0.4c-0.2,0.3-0.4,0.7-0.6,1.1v-0.2c-0.4,0.3-0.7,0.6-1,1c0,0.2-0.1,0.3,0.1,0.4c-1.4,0.4-1.3,2-2.5,2.3
	c0.1-0.1,0.1-0.3,0.1-0.2l-0.6,0.7c0.2,0.1,0.2,0,0.5,0c0,0.2-0.1,0.4-0.3,0.6c0.2-0.4-0.3-0.3-0.5-0.2c0.1,0,0.1,0.1,0.1,0.2
	c-0.6,0,0.3,0.4-0.4,0.6l-0.1-0.1c-0.1,0.2-0.2,0.5-0.4,0.6c-0.3-0.1,0.1-0.3,0-0.4c-0.3,0.3-0.2,0.9-0.6,0.9
	c0.1-0.2,0.2-0.3,0.3-0.5c-0.3,0-0.5,0.1-0.7,0.3l0,0l-0.6,0.3h0.2c0.1,0.8-0.6,0.7-0.8,1.5c0.2-0.7-0.1-0.3-0.2-0.5
	c-0.2,0-0.4,0.1-0.4,0c-0.1,0.4-0.5,0.2-0.6,0.7c-0.1-0.1-0.2,0.2-0.4,0c-0.2,0.3,0.2,0.1,0.2,0.2c-0.3,0.6-1.3,0.6-1.8,1.4
	c-0.4,0.5-0.4,0.9-0.8,1.3l-0.2,0.1c-0.1-0.1,0-0.4,0-0.4c-0.3,0.1-0.6,0.3-0.8,0.6c0-0.1-0.1-0.1-0.2-0.2c-0.2,0.2,0,0.4-0.4,0.5
	c0-0.2,0-0.3,0-0.5c-0.2,0.3-0.4,0.6-0.6,0.9c-0.2-0.1,0-0.3,0.1-0.5c-0.3,0.3-0.8,0.7-0.7,1l0.3-0.1c-0.1,0.1-0.2-0.1-0.1-0.2
	c0.1-0.2,0.2-0.2,0.4-0.2c0,0,0.1,0,0.1,0.1l-0.2,0.2c0.5,0.3,0.8-0.6,1.2-0.9l0,0.4c-1,0.7-2.1,1.4-3.2,2.1L268.2,285.3z
	 M312.3,245.2c0-0.2,0.1-0.4,0.1-0.8l0,0C312.4,244.8,312.4,245,312.3,245.2L312.3,245.2z M312.7,242.7c-0.1,0.1-0.2,0-0.1-0.4
	c0,0.2,0.2-0.5,0.3-1C312.9,241.7,312.8,242.2,312.7,242.7L312.7,242.7z"/>
<path class="st0" d="M194.2,296.3l0.1,0.1C194.3,296.4,194.3,296.3,194.2,296.3z"/>
<polygon class="st0" points="167.1,195 167.1,195 167.1,195 "/>
<polygon class="st0" points="307,198.9 306.9,199 307.1,199.2 "/>
<path class="st0" d="M168.2,269.1c0,0.1,0,0.2,0,0.2C168.2,269.2,168.2,269.2,168.2,269.1z"/>
<path class="st0" d="M172.1,275.4l0.5,0.9C172.4,276,172.2,275.7,172.1,275.4z"/>
<path class="st0" d="M175.4,280.1c0.1,0,0.1,0,0.2,0H175.4z"/>
<path class="st0" d="M167.3,194.4l0.1-0.2C167.6,193.8,167.4,194.1,167.3,194.4z"/>
<path class="st0" d="M159.4,220.2c0-0.3,0-0.6,0-0.9C159.3,219.8,159.2,220.1,159.4,220.2z"/>
<path class="st0" d="M186.2,170.8L186.2,170.8l0.1-0.1L186.2,170.8z"/>
<path class="st0" d="M159.4,219.3c0.1-0.4,0.2-0.8,0.2-1.2C159.4,218.5,159.3,218.9,159.4,219.3z"/>
<path class="st0" d="M193.9,296.9C193.9,296.9,193.9,296.9,193.9,296.9l-0.2-0.1L193.9,296.9z"/>
<path class="st0" d="M194.2,297c-0.1-0.1-0.2-0.1-0.3-0.1L194.2,297z"/>
<path class="st0" d="M194.8,297.3l-0.6-0.3C194.4,297.1,194.6,297.2,194.8,297.3z"/>
<path class="st0" d="M185.8,290.8c0.5,0.5,1,1,1.6,1.5h0.1C187.1,292.1,186.3,291,185.8,290.8z"/>
<polygon class="st0" points="158.3,231.9 158.1,232.6 158.4,233 "/>
</svg>
